<?xml version="1.0" encoding="UTF-8" standalone="no"?>
<svg
   width="124mm"
   height="124mm"
   viewBox="-62 -62 124 124"
   version="1.1"
   id="svg7397"
   sodipodi:docname="basePlate2.svg"
   inkscape:version="1.2.2 (b0a8486, 2022-12-01)"
   xmlns:inkscape="http://www.inkscape.org/namespaces/inkscape"
   xmlns:sodipodi="http://sodipodi.sourceforge.net/DTD/sodipodi-0.dtd"
   xmlns="http://www.w3.org/2000/svg"
   xmlns:svg="http://www.w3.org/2000/svg">
  <defs
     id="defs7401" />
  <sodipodi:namedview
     id="namedview7399"
     pagecolor="#ffffff"
     bordercolor="#000000"
     borderopacity="0.25"
     inkscape:showpageshadow="2"
     inkscape:pageopacity="0.0"
     inkscape:pagecheckerboard="0"
     inkscape:deskcolor="#d1d1d1"
     inkscape:document-units="mm"
     showgrid="false"
     inkscape:zoom="0.50356183"
     inkscape:cx="234.33071"
     inkscape:cy="234.33071"
     inkscape:window-width="1309"
     inkscape:window-height="456"
     inkscape:window-x="0"
     inkscape:window-y="25"
     inkscape:window-maximized="0"
     inkscape:current-layer="svg7397" />
  <title
     id="title7393">OpenSCAD Model</title>
  <path
     d=" M 1.08205,61.9906 L 2.16377,61.9622 L 3.24483,61.915 L 4.3249,61.849 L 5.40366,61.7641 L 6.48076,61.6604  L 7.5559,61.5379 L 8.62873,61.3966 L 9.69894,61.2367 L 10.7662,61.0581 L 11.8302,60.8609 L 12.8905,60.6451  L 13.947,60.4109 L 14.9992,60.1583 L 16.0468,59.8874 L 17.0895,59.5982 L 18.127,59.2909 L 19.1591,58.9655  L 20.1852,58.6222 L 21.2052,58.2609 L 22.2188,57.882 L 23.2256,57.4854 L 24.2253,57.0713 L 25.2177,56.6398  L 26.2023,56.1911 L 27.179,55.7252 L 28.1474,55.2424 L 29.1072,54.7428 L 30.0582,54.2264 L 31,53.6936  L 31.9324,53.1444 L 32.855,52.579 L 33.7676,51.9976 L 34.67,51.4003 L 35.5617,50.7874 L 36.4427,50.1591  L 37.3125,49.5154 L 38.171,48.8567 L 39.0179,48.183 L 39.8528,47.4948 L 40.6757,46.792 L 41.4861,46.075  L 42.2839,45.3439 L 43.0688,44.5991 L 43.8406,43.8406 L 44.5991,43.0688 L 45.3439,42.2839 L 46.075,41.4861  L 46.792,40.6757 L 47.4948,39.8528 L 48.183,39.0179 L 48.8567,38.171 L 49.5154,37.3125 L 50.1591,36.4427  L 50.7874,35.5617 L 51.4003,34.67 L 51.9976,33.7676 L 52.579,32.855 L 53.1444,31.9324 L 53.6936,31  L 54.2264,30.0582 L 54.7428,29.1072 L 55.2424,28.1474 L 55.7252,27.179 L 56.1911,26.2023 L 56.6398,25.2177  L 57.0713,24.2253 L 57.4854,23.2256 L 57.882,22.2188 L 58.2609,21.2052 L 58.6222,20.1852 L 58.9655,19.1591  L 59.2909,18.127 L 59.5982,17.0895 L 59.8874,16.0468 L 60.1583,14.9992 L 60.4109,13.947 L 60.6451,12.8905  L 60.8609,11.8302 L 61.0581,10.7662 L 61.2367,9.69894 L 61.3966,8.62873 L 61.5379,7.5559 L 61.6604,6.48076  L 61.7641,5.40366 L 61.849,4.3249 L 61.915,3.24483 L 61.9622,2.16377 L 61.9906,1.08205 L 62,-0  L 61.9906,-1.08205 L 61.9622,-2.16377 L 61.915,-3.24483 L 61.849,-4.3249 L 61.7641,-5.40366 L 61.6604,-6.48076  L 61.5379,-7.5559 L 61.3966,-8.62873 L 61.2367,-9.69894 L 61.0581,-10.7662 L 60.8609,-11.8302 L 60.6451,-12.8905  L 60.4109,-13.947 L 60.1583,-14.9992 L 59.8874,-16.0468 L 59.5982,-17.0895 L 59.2909,-18.127 L 58.9655,-19.1591  L 58.6222,-20.1852 L 58.2609,-21.2052 L 57.882,-22.2188 L 57.4854,-23.2256 L 57.0713,-24.2253 L 56.6398,-25.2177  L 56.1911,-26.2023 L 55.7252,-27.179 L 55.2424,-28.1474 L 54.7428,-29.1072 L 54.2264,-30.0582 L 53.6936,-31  L 53.1444,-31.9324 L 52.579,-32.855 L 51.9976,-33.7676 L 51.4003,-34.67 L 50.7874,-35.5617 L 50.1591,-36.4427  L 49.5154,-37.3125 L 48.8567,-38.171 L 48.183,-39.0179 L 47.4948,-39.8528 L 46.792,-40.6757 L 46.075,-41.4861  L 45.3439,-42.2839 L 44.5991,-43.0688 L 43.8406,-43.8406 L 43.0688,-44.5991 L 42.2839,-45.3439 L 41.4861,-46.075  L 40.6757,-46.792 L 39.8528,-47.4948 L 39.0179,-48.183 L 38.171,-48.8567 L 37.3125,-49.5154 L 36.4427,-50.1591  L 35.5617,-50.7874 L 34.67,-51.4003 L 33.7676,-51.9976 L 32.855,-52.579 L 31.9324,-53.1444 L 31,-53.6936  L 30.0582,-54.2264 L 29.1072,-54.7428 L 28.1474,-55.2424 L 27.179,-55.7252 L 26.2023,-56.1911 L 25.2177,-56.6398  L 24.2253,-57.0713 L 23.2256,-57.4854 L 22.2188,-57.882 L 21.2052,-58.2609 L 20.1852,-58.6222 L 19.1591,-58.9655  L 18.127,-59.2909 L 17.0895,-59.5982 L 16.0468,-59.8874 L 14.9992,-60.1583 L 13.947,-60.4109 L 12.8905,-60.6451  L 11.8302,-60.8609 L 10.7662,-61.0581 L 9.69894,-61.2367 L 8.62873,-61.3966 L 7.5559,-61.5379 L 6.48076,-61.6604  L 5.40366,-61.7641 L 4.3249,-61.849 L 3.24483,-61.915 L 2.16377,-61.9622 L 1.08205,-61.9906 L 0,-62  L -1.08205,-61.9906 L -2.16377,-61.9622 L -3.24483,-61.915 L -4.3249,-61.849 L -5.40366,-61.7641 L -6.48076,-61.6604  L -7.5559,-61.5379 L -8.62873,-61.3966 L -9.69894,-61.2367 L -10.7662,-61.0581 L -11.8302,-60.8609 L -12.8905,-60.6451  L -13.947,-60.4109 L -14.9992,-60.1583 L -16.0468,-59.8874 L -17.0895,-59.5982 L -18.127,-59.2909 L -19.1591,-58.9655  L -20.1852,-58.6222 L -21.2052,-58.2609 L -22.2188,-57.882 L -23.2256,-57.4854 L -24.2253,-57.0713 L -25.2177,-56.6398  L -26.2023,-56.1911 L -27.179,-55.7252 L -28.1474,-55.2424 L -29.1072,-54.7428 L -30.0582,-54.2264 L -31,-53.6936  L -31.9324,-53.1444 L -32.855,-52.579 L -33.7676,-51.9976 L -34.67,-51.4003 L -35.5617,-50.7874 L -36.4427,-50.1591  L -37.3125,-49.5154 L -38.171,-48.8567 L -39.0179,-48.183 L -39.8528,-47.4948 L -40.6757,-46.792 L -41.4861,-46.075  L -42.2839,-45.3439 L -43.0688,-44.5991 L -43.8406,-43.8406 L -44.5991,-43.0688 L -45.3439,-42.2839 L -46.075,-41.4861  L -46.792,-40.6757 L -47.4948,-39.8528 L -48.183,-39.0179 L -48.8567,-38.171 L -49.5154,-37.3125 L -50.1591,-36.4427  L -50.7874,-35.5617 L -51.4003,-34.67 L -51.9976,-33.7676 L -52.579,-32.855 L -53.1444,-31.9324 L -53.6936,-31  L -54.2264,-30.0582 L -54.7428,-29.1072 L -55.2424,-28.1474 L -55.7252,-27.179 L -56.1911,-26.2023 L -56.6398,-25.2177  L -57.0713,-24.2253 L -57.4854,-23.2256 L -57.882,-22.2188 L -58.2609,-21.2052 L -58.6222,-20.1852 L -58.9655,-19.1591  L -59.2909,-18.127 L -59.5982,-17.0895 L -59.8874,-16.0468 L -60.1583,-14.9992 L -60.4109,-13.947 L -60.6451,-12.8905  L -60.8609,-11.8302 L -61.0581,-10.7662 L -61.2367,-9.69894 L -61.3966,-8.62873 L -61.5379,-7.5559 L -61.6604,-6.48076  L -61.7641,-5.40366 L -61.849,-4.3249 L -61.915,-3.24483 L -61.9622,-2.16377 L -61.9906,-1.08205 L -62,-0  L -61.9906,1.08205 L -61.9622,2.16377 L -61.915,3.24483 L -61.849,4.3249 L -61.7641,5.40366 L -61.6604,6.48076  L -61.5379,7.5559 L -61.3966,8.62873 L -61.2367,9.69894 L -61.0581,10.7662 L -60.8609,11.8302 L -60.6451,12.8905  L -60.4109,13.947 L -60.1583,14.9992 L -59.8874,16.0468 L -59.5982,17.0895 L -59.2909,18.127 L -58.9655,19.1591  L -58.6222,20.1852 L -58.2609,21.2052 L -57.882,22.2188 L -57.4854,23.2256 L -57.0713,24.2253 L -56.6398,25.2177  L -56.1911,26.2023 L -55.7252,27.179 L -55.2424,28.1474 L -54.7428,29.1072 L -54.2264,30.0582 L -53.6936,31  L -53.1444,31.9324 L -52.579,32.855 L -51.9976,33.7676 L -51.4003,34.67 L -50.7874,35.5617 L -50.1591,36.4427  L -49.5154,37.3125 L -48.8567,38.171 L -48.183,39.0179 L -47.4948,39.8528 L -46.792,40.6757 L -46.075,41.4861  L -45.3439,42.2839 L -44.5991,43.0688 L -43.8406,43.8406 L -43.0688,44.5991 L -42.2839,45.3439 L -41.4861,46.075  L -40.6757,46.792 L -39.8528,47.4948 L -39.0179,48.183 L -38.171,48.8567 L -37.3125,49.5154 L -36.4427,50.1591  L -35.5617,50.7874 L -34.67,51.4003 L -33.7676,51.9976 L -32.855,52.579 L -31.9324,53.1444 L -31,53.6936  L -30.0582,54.2264 L -29.1072,54.7428 L -28.1474,55.2424 L -27.179,55.7252 L -26.2023,56.1911 L -25.2177,56.6398  L -24.2253,57.0713 L -23.2256,57.4854 L -22.2188,57.882 L -21.2052,58.2609 L -20.1852,58.6222 L -19.1591,58.9655  L -18.127,59.2909 L -17.0895,59.5982 L -16.0468,59.8874 L -14.9992,60.1583 L -13.947,60.4109 L -12.8905,60.6451  L -11.8302,60.8609 L -10.7662,61.0581 L -9.69894,61.2367 L -8.62873,61.3966 L -7.5559,61.5379 L -6.48076,61.6604  L -5.40366,61.7641 L -4.3249,61.849 L -3.24483,61.915 L -2.16377,61.9622 L -1.08205,61.9906 L 0,62  z M 0,-45 L 0,-53 L 28,-53 L 28,-45 z M -20.5,46 L -20.5,-46 L -11.5,-46 L -11.5,46 z M 39.8497,-38.6368 L 39.8207,-38.6386 L 39.7919,-38.6425 L 39.7263,-38.6515 L 39.6616,-38.6651 L 39.6331,-38.6711  L 39.6051,-38.6791 L 39.5415,-38.6974 L 39.4794,-38.7202 L 39.4521,-38.7303 L 39.4256,-38.7422 L 39.3653,-38.7695  L 39.3071,-38.801 L 39.2815,-38.8149 L 39.257,-38.8305 L 39.2012,-38.8662 L 39.1482,-38.9058 L 39.1249,-38.9231  L 39.1029,-38.9422 L 39.0528,-38.9855 L 38.9855,-39.0528 L 38.9422,-39.1029 L 38.9231,-39.1249 L 38.9058,-39.1482  L 38.8662,-39.2012 L 38.8305,-39.257 L 38.8149,-39.2815 L 38.801,-39.3071 L 38.7695,-39.3653 L 38.7422,-39.4256  L 38.7303,-39.4521 L 38.7202,-39.4794 L 38.6974,-39.5415 L 38.6791,-39.6051 L 38.6711,-39.6331 L 38.6651,-39.6616  L 38.6515,-39.7263 L 38.6425,-39.7919 L 38.6386,-39.8207 L 38.6368,-39.8497 L 38.6326,-39.9158 L 38.6332,-39.982  L 38.6334,-40.0111 L 38.6358,-40.0401 L 38.6412,-40.106 L 38.6513,-40.1714 L 38.6557,-40.2002 L 38.6705,-40.2647  L 38.677,-40.293 L 38.6856,-40.3208 L 38.705,-40.3841 L 38.7155,-40.4112 L 38.7395,-40.4729 L 38.7519,-40.4992  L 38.7803,-40.559 L 38.8128,-40.6166 L 38.8271,-40.642 L 38.8638,-40.6971 L 38.8799,-40.7213 L 38.9204,-40.7736  L 38.9382,-40.7966 L 38.9577,-40.8183 L 39.0019,-40.8675 L 39.0495,-40.9135 L 39.0704,-40.9337 L 39.0928,-40.9523  L 39.1436,-40.9947 L 39.1672,-41.0117 L 39.221,-41.0503 L 39.2774,-41.0849 L 39.3022,-41.1001 L 39.3609,-41.1306  L 39.3867,-41.144 L 39.4475,-41.1701 L 39.4742,-41.1816 L 39.5017,-41.1912 L 39.5642,-41.2129 L 39.5923,-41.2204  L 39.6563,-41.2375 L 39.7213,-41.25 L 39.7498,-41.2555 L 39.8156,-41.2632 L 39.8444,-41.2666 L 39.8735,-41.2679  L 39.9396,-41.2709 L 39.9687,-41.2701 L 40.0349,-41.2683 L 40.1007,-41.2618 L 40.1297,-41.2589 L 40.1583,-41.2539  L 40.2235,-41.2426 L 40.2878,-41.2267 L 40.316,-41.2196 L 40.3789,-41.1991 L 40.4065,-41.19 L 40.4335,-41.179  L 40.4947,-41.154 L 40.554,-41.1246 L 40.5801,-41.1116 L 40.6051,-41.0969 L 40.6621,-41.0633 L 40.6861,-41.0467  L 40.7405,-41.0091 L 40.7921,-40.9676 L 40.8148,-40.9494 L 40.8632,-40.9043 L 40.8845,-40.8845 L 40.9043,-40.8632  L 40.9494,-40.8148 L 40.9676,-40.7921 L 41.0091,-40.7405 L 41.0467,-40.6861 L 41.0633,-40.6621 L 41.0969,-40.6051  L 41.1116,-40.5801 L 41.1246,-40.554 L 41.154,-40.4947 L 41.179,-40.4335 L 41.19,-40.4065 L 41.1991,-40.3789  L 41.2196,-40.316 L 41.2267,-40.2878 L 41.2426,-40.2235 L 41.2539,-40.1583 L 41.2589,-40.1297 L 41.2618,-40.1007  L 41.2683,-40.0349 L 41.2701,-39.9687 L 41.2709,-39.9396 L 41.2679,-39.8735 L 41.2666,-39.8444 L 41.2632,-39.8156  L 41.2555,-39.7498 L 41.25,-39.7213 L 41.2375,-39.6563 L 41.2204,-39.5923 L 41.2129,-39.5642 L 41.1912,-39.5017  L 41.1816,-39.4742 L 41.1701,-39.4475 L 41.144,-39.3867 L 41.1306,-39.3609 L 41.1001,-39.3022 L 41.0849,-39.2774  L 41.0503,-39.221 L 41.0117,-39.1672 L 40.9947,-39.1436 L 40.9523,-39.0928 L 40.9337,-39.0704 L 40.9135,-39.0495  L 40.8675,-39.0019 L 40.8183,-38.9577 L 40.7966,-38.9382 L 40.7736,-38.9204 L 40.7213,-38.8799 L 40.6971,-38.8638  L 40.642,-38.8271 L 40.6166,-38.8128 L 40.559,-38.7803 L 40.4992,-38.7519 L 40.4729,-38.7395 L 40.4112,-38.7155  L 40.3841,-38.705 L 40.3208,-38.6856 L 40.293,-38.677 L 40.2647,-38.6705 L 40.2002,-38.6557 L 40.1714,-38.6513  L 40.106,-38.6412 L 40.0401,-38.6358 L 40.0111,-38.6334 L 39.982,-38.6332 L 39.9158,-38.6326 z M -40.0533,-38.6368 L -40.0823,-38.6386 L -40.1112,-38.6425 L -40.1767,-38.6515 L -40.2415,-38.6651 L -40.27,-38.6711  L -40.2979,-38.6791 L -40.3615,-38.6974 L -40.4237,-38.7202 L -40.451,-38.7303 L -40.4775,-38.7422 L -40.5378,-38.7695  L -40.596,-38.801 L -40.6215,-38.8149 L -40.646,-38.8305 L -40.7018,-38.8662 L -40.7549,-38.9058 L -40.7782,-38.9231  L -40.8002,-38.9422 L -40.8502,-38.9855 L -40.9176,-39.0528 L -40.9609,-39.1029 L -40.9799,-39.1249 L -40.9973,-39.1482  L -41.0369,-39.2012 L -41.0725,-39.257 L -41.0882,-39.2815 L -41.1021,-39.3071 L -41.1336,-39.3653 L -41.1608,-39.4256  L -41.1728,-39.4521 L -41.1828,-39.4794 L -41.2057,-39.5415 L -41.2239,-39.6051 L -41.232,-39.6331 L -41.238,-39.6616  L -41.2516,-39.7263 L -41.2606,-39.7919 L -41.2645,-39.8207 L -41.2663,-39.8497 L -41.2705,-39.9158 L -41.2699,-39.982  L -41.2696,-40.0111 L -41.2673,-40.0401 L -41.2619,-40.106 L -41.2518,-40.1714 L -41.2473,-40.2002 L -41.2325,-40.2647  L -41.226,-40.293 L -41.2175,-40.3208 L -41.1981,-40.3841 L -41.1875,-40.4112 L -41.1636,-40.4729 L -41.1511,-40.4992  L -41.1228,-40.559 L -41.0902,-40.6166 L -41.0759,-40.642 L -41.0393,-40.6971 L -41.0232,-40.7213 L -40.9826,-40.7736  L -40.9648,-40.7966 L -40.9454,-40.8183 L -40.9012,-40.8675 L -40.8536,-40.9135 L -40.8326,-40.9337 L -40.8103,-40.9523  L -40.7595,-40.9947 L -40.7359,-41.0117 L -40.6821,-41.0503 L -40.6257,-41.0849 L -40.6009,-41.1001 L -40.5422,-41.1306  L -40.5163,-41.144 L -40.4555,-41.1701 L -40.4288,-41.1816 L -40.4013,-41.1912 L -40.3388,-41.2129 L -40.3107,-41.2204  L -40.2468,-41.2375 L -40.1818,-41.25 L -40.1532,-41.2555 L -40.0875,-41.2632 L -40.0586,-41.2666 L -40.0296,-41.2679  L -39.9634,-41.2709 L -39.9344,-41.2701 L -39.8682,-41.2683 L -39.8023,-41.2618 L -39.7734,-41.2589 L -39.7448,-41.2539  L -39.6795,-41.2426 L -39.6153,-41.2267 L -39.5871,-41.2196 L -39.5242,-41.1991 L -39.4965,-41.19 L -39.4696,-41.179  L -39.4083,-41.154 L -39.349,-41.1246 L -39.323,-41.1116 L -39.2979,-41.0969 L -39.2409,-41.0633 L -39.217,-41.0467  L -39.1626,-41.0091 L -39.111,-40.9676 L -39.0883,-40.9494 L -39.0398,-40.9043 L -39.0185,-40.8845 L -38.9987,-40.8632  L -38.9537,-40.8148 L -38.9354,-40.7921 L -38.894,-40.7405 L -38.8563,-40.6861 L -38.8398,-40.6621 L -38.8062,-40.6051  L -38.7914,-40.5801 L -38.7785,-40.554 L -38.7491,-40.4947 L -38.724,-40.4335 L -38.713,-40.4065 L -38.704,-40.3789  L -38.6834,-40.316 L -38.6764,-40.2878 L -38.6604,-40.2235 L -38.6491,-40.1583 L -38.6442,-40.1297 L -38.6413,-40.1007  L -38.6347,-40.0349 L -38.6329,-39.9687 L -38.6321,-39.9396 L -38.6351,-39.8735 L -38.6364,-39.8444 L -38.6398,-39.8156  L -38.6476,-39.7498 L -38.6531,-39.7213 L -38.6656,-39.6563 L -38.6827,-39.5923 L -38.6902,-39.5642 L -38.7119,-39.5017  L -38.7214,-39.4742 L -38.7329,-39.4475 L -38.7591,-39.3867 L -38.7725,-39.3609 L -38.803,-39.3022 L -38.8182,-39.2774  L -38.8528,-39.221 L -38.8914,-39.1672 L -38.9084,-39.1436 L -38.9508,-39.0928 L -38.9694,-39.0704 L -38.9896,-39.0495  L -39.0355,-39.0019 L -39.0848,-38.9577 L -39.1065,-38.9382 L -39.1294,-38.9204 L -39.1818,-38.8799 L -39.206,-38.8638  L -39.2611,-38.8271 L -39.2864,-38.8128 L -39.344,-38.7803 L -39.4039,-38.7519 L -39.4301,-38.7395 L -39.4918,-38.7155  L -39.519,-38.705 L -39.5822,-38.6856 L -39.61,-38.677 L -39.6384,-38.6705 L -39.7029,-38.6557 L -39.7316,-38.6513  L -39.797,-38.6412 L -39.863,-38.6358 L -39.892,-38.6334 L -39.9211,-38.6332 L -39.9873,-38.6326 z M 18.0144,-36.6337 L 17.6638,-36.8154 L 17.3752,-37.0849 L 17.17,-37.4223 L 17.0635,-37.8026 L 17.0635,-38.1974  L 17.17,-38.5777 L 17.3752,-38.9151 L 17.6638,-39.1846 L 18.0144,-39.3663 L 18.401,-39.4466 L 18.795,-39.4197  L 19.1671,-39.2874 L 19.4897,-39.0597 L 19.7389,-38.7534 L 19.8962,-38.3912 L 19.95,-38 L 19.8962,-37.6088  L 19.7389,-37.2466 L 19.4897,-36.9403 L 19.1671,-36.7126 L 18.795,-36.5803 L 18.401,-36.5534 z M -34.0429,-32.6263 L -34.0719,-32.6282 L -34.1007,-32.6321 L -34.1663,-32.641 L -34.2311,-32.6547 L -34.2596,-32.6607  L -34.2875,-32.6687 L -34.3511,-32.687 L -34.4132,-32.7098 L -34.4405,-32.7199 L -34.4671,-32.7318 L -34.5274,-32.7591  L -34.5856,-32.7906 L -34.6111,-32.8045 L -34.6356,-32.8201 L -34.6914,-32.8558 L -34.7445,-32.8953 L -34.7678,-32.9127  L -34.7898,-32.9318 L -34.8398,-32.9751 L -34.9072,-33.0424 L -34.9505,-33.0925 L -34.9695,-33.1145 L -34.9869,-33.1378  L -35.0265,-33.1908 L -35.0621,-33.2466 L -35.0778,-33.2711 L -35.0916,-33.2967 L -35.1232,-33.3549 L -35.1504,-33.4152  L -35.1624,-33.4417 L -35.1724,-33.469 L -35.1953,-33.5311 L -35.2135,-33.5947 L -35.2216,-33.6227 L -35.2276,-33.6511  L -35.2412,-33.7159 L -35.2501,-33.7815 L -35.2541,-33.8103 L -35.2559,-33.8393 L -35.2601,-33.9054 L -35.2595,-33.9716  L -35.2592,-34.0007 L -35.2569,-34.0296 L -35.2515,-34.0956 L -35.2414,-34.161 L -35.2369,-34.1898 L -35.2221,-34.2543  L -35.2156,-34.2826 L -35.2071,-34.3104 L -35.1876,-34.3737 L -35.1771,-34.4008 L -35.1532,-34.4625 L -35.1407,-34.4888  L -35.1124,-34.5486 L -35.0798,-34.6062 L -35.0655,-34.6315 L -35.0289,-34.6867 L -35.0128,-34.7109 L -34.9722,-34.7632  L -34.9544,-34.7862 L -34.935,-34.8078 L -34.8908,-34.8571 L -34.8432,-34.9031 L -34.8222,-34.9233 L -34.7999,-34.9419  L -34.7491,-34.9843 L -34.7254,-35.0012 L -34.6717,-35.0399 L -34.6153,-35.0745 L -34.5905,-35.0897 L -34.5317,-35.1202  L -34.5059,-35.1336 L -34.4451,-35.1597 L -34.4184,-35.1712 L -34.3909,-35.1808 L -34.3284,-35.2024 L -34.3003,-35.21  L -34.2364,-35.2271 L -34.1714,-35.2396 L -34.1428,-35.2451 L -34.0771,-35.2528 L -34.0482,-35.2562 L -34.0192,-35.2575  L -33.953,-35.2605 L -33.924,-35.2597 L -33.8578,-35.2579 L -33.7919,-35.2514 L -33.763,-35.2485 L -33.7343,-35.2435  L -33.6691,-35.2322 L -33.6049,-35.2163 L -33.5767,-35.2092 L -33.5138,-35.1887 L -33.4861,-35.1796 L -33.4592,-35.1686  L -33.3979,-35.1436 L -33.3386,-35.1142 L -33.3126,-35.1012 L -33.2875,-35.0865 L -33.2305,-35.0529 L -33.2066,-35.0363  L -33.1521,-34.9987 L -33.1006,-34.9572 L -33.0779,-34.939 L -33.0294,-34.8939 L -33.0081,-34.8741 L -32.9883,-34.8528  L -32.9432,-34.8044 L -32.925,-34.7817 L -32.8836,-34.7301 L -32.8459,-34.6757 L -32.8294,-34.6517 L -32.7958,-34.5947  L -32.781,-34.5697 L -32.7681,-34.5436 L -32.7387,-34.4843 L -32.7136,-34.423 L -32.7026,-34.3961 L -32.6936,-34.3685  L -32.673,-34.3056 L -32.666,-34.2774 L -32.65,-34.2131 L -32.6387,-34.1479 L -32.6338,-34.1193 L -32.6309,-34.0903  L -32.6243,-34.0244 L -32.6225,-33.9583 L -32.6217,-33.9292 L -32.6247,-33.8631 L -32.626,-33.834 L -32.6294,-33.8052  L -32.6372,-33.7394 L -32.6427,-33.7109 L -32.6551,-33.6459 L -32.6723,-33.5819 L -32.6798,-33.5538 L -32.7015,-33.4913  L -32.711,-33.4638 L -32.7225,-33.4371 L -32.7487,-33.3763 L -32.7621,-33.3505 L -32.7925,-33.2917 L -32.8078,-33.267  L -32.8424,-33.2106 L -32.881,-33.1568 L -32.898,-33.1332 L -32.9404,-33.0824 L -32.959,-33.06 L -32.9792,-33.0391  L -33.0251,-32.9914 L -33.0744,-32.9472 L -33.096,-32.9278 L -33.119,-32.91 L -33.1714,-32.8695 L -33.1956,-32.8534  L -33.2507,-32.8167 L -33.276,-32.8024 L -33.3336,-32.7698 L -33.3935,-32.7415 L -33.4197,-32.7291 L -33.4814,-32.7051  L -33.5086,-32.6946 L -33.5718,-32.6752 L -33.5996,-32.6666 L -33.628,-32.6601 L -33.6925,-32.6453 L -33.7212,-32.6409  L -33.7866,-32.6308 L -33.8526,-32.6254 L -33.8816,-32.623 L -33.9107,-32.6228 L -33.9769,-32.6222 z M 33.8393,-32.6263 L 33.8103,-32.6282 L 33.7815,-32.6321 L 33.7159,-32.641 L 33.6511,-32.6547 L 33.6227,-32.6607  L 33.5947,-32.6687 L 33.5311,-32.687 L 33.469,-32.7098 L 33.4417,-32.7199 L 33.4152,-32.7318 L 33.3549,-32.7591  L 33.2967,-32.7906 L 33.2711,-32.8045 L 33.2466,-32.8201 L 33.1908,-32.8558 L 33.1378,-32.8953 L 33.1145,-32.9127  L 33.0925,-32.9318 L 33.0424,-32.9751 L 32.9751,-33.0424 L 32.9318,-33.0925 L 32.9127,-33.1145 L 32.8953,-33.1378  L 32.8558,-33.1908 L 32.8201,-33.2466 L 32.8045,-33.2711 L 32.7906,-33.2967 L 32.7591,-33.3549 L 32.7318,-33.4152  L 32.7199,-33.4417 L 32.7098,-33.469 L 32.687,-33.5311 L 32.6687,-33.5947 L 32.6607,-33.6227 L 32.6547,-33.6511  L 32.641,-33.7159 L 32.6321,-33.7815 L 32.6282,-33.8103 L 32.6263,-33.8393 L 32.6222,-33.9054 L 32.6228,-33.9716  L 32.623,-34.0007 L 32.6254,-34.0296 L 32.6308,-34.0956 L 32.6409,-34.161 L 32.6453,-34.1898 L 32.6601,-34.2543  L 32.6666,-34.2826 L 32.6752,-34.3104 L 32.6946,-34.3737 L 32.7051,-34.4008 L 32.7291,-34.4625 L 32.7415,-34.4888  L 32.7698,-34.5486 L 32.8024,-34.6062 L 32.8167,-34.6315 L 32.8534,-34.6867 L 32.8695,-34.7109 L 32.91,-34.7632  L 32.9278,-34.7862 L 32.9472,-34.8078 L 32.9914,-34.8571 L 33.0391,-34.9031 L 33.06,-34.9233 L 33.0824,-34.9419  L 33.1332,-34.9843 L 33.1568,-35.0012 L 33.2106,-35.0399 L 33.267,-35.0745 L 33.2917,-35.0897 L 33.3505,-35.1202  L 33.3763,-35.1336 L 33.4371,-35.1597 L 33.4638,-35.1712 L 33.4913,-35.1808 L 33.5538,-35.2024 L 33.5819,-35.21  L 33.6459,-35.2271 L 33.7109,-35.2396 L 33.7394,-35.2451 L 33.8052,-35.2528 L 33.834,-35.2562 L 33.8631,-35.2575  L 33.9292,-35.2605 L 33.9583,-35.2597 L 34.0244,-35.2579 L 34.0903,-35.2514 L 34.1193,-35.2485 L 34.1479,-35.2435  L 34.2131,-35.2322 L 34.2774,-35.2163 L 34.3056,-35.2092 L 34.3685,-35.1887 L 34.3961,-35.1796 L 34.423,-35.1686  L 34.4843,-35.1436 L 34.5436,-35.1142 L 34.5697,-35.1012 L 34.5947,-35.0865 L 34.6517,-35.0529 L 34.6757,-35.0363  L 34.7301,-34.9987 L 34.7817,-34.9572 L 34.8044,-34.939 L 34.8528,-34.8939 L 34.8741,-34.8741 L 34.8939,-34.8528  L 34.939,-34.8044 L 34.9572,-34.7817 L 34.9987,-34.7301 L 35.0363,-34.6757 L 35.0529,-34.6517 L 35.0865,-34.5947  L 35.1012,-34.5697 L 35.1142,-34.5436 L 35.1436,-34.4843 L 35.1686,-34.423 L 35.1796,-34.3961 L 35.1887,-34.3685  L 35.2092,-34.3056 L 35.2163,-34.2774 L 35.2322,-34.2131 L 35.2435,-34.1479 L 35.2485,-34.1193 L 35.2514,-34.0903  L 35.2579,-34.0244 L 35.2597,-33.9583 L 35.2605,-33.9292 L 35.2575,-33.8631 L 35.2562,-33.834 L 35.2528,-33.8052  L 35.2451,-33.7394 L 35.2396,-33.7109 L 35.2271,-33.6459 L 35.21,-33.5819 L 35.2024,-33.5538 L 35.1808,-33.4913  L 35.1712,-33.4638 L 35.1597,-33.4371 L 35.1336,-33.3763 L 35.1202,-33.3505 L 35.0897,-33.2917 L 35.0745,-33.267  L 35.0399,-33.2106 L 35.0012,-33.1568 L 34.9843,-33.1332 L 34.9419,-33.0824 L 34.9233,-33.06 L 34.9031,-33.0391  L 34.8571,-32.9914 L 34.8078,-32.9472 L 34.7862,-32.9278 L 34.7632,-32.91 L 34.7109,-32.8695 L 34.6867,-32.8534  L 34.6315,-32.8167 L 34.6062,-32.8024 L 34.5486,-32.7698 L 34.4888,-32.7415 L 34.4625,-32.7291 L 34.4008,-32.7051  L 34.3737,-32.6946 L 34.3104,-32.6752 L 34.2826,-32.6666 L 34.2543,-32.6601 L 34.1898,-32.6453 L 34.161,-32.6409  L 34.0956,-32.6308 L 34.0296,-32.6254 L 34.0007,-32.623 L 33.9716,-32.6228 L 33.9054,-32.6222 z M 1.51443,-21.1337 L 1.16381,-21.3154 L 0.875219,-21.5849 L 0.670044,-21.9223 L 0.563506,-22.3026 L 0.563506,-22.6974  L 0.670044,-23.0777 L 0.875219,-23.4151 L 1.16381,-23.6846 L 1.51443,-23.8663 L 1.90105,-23.9466 L 2.29501,-23.9197  L 2.6671,-23.7874 L 2.9897,-23.5597 L 3.23891,-23.2534 L 3.39623,-22.8912 L 3.45,-22.5 L 3.39623,-22.1088  L 3.23891,-21.7466 L 2.9897,-21.4403 L 2.6671,-21.2126 L 2.29501,-21.0803 L 1.90105,-21.0534 z M 18.0144,-18.6337 L 17.6638,-18.8154 L 17.3752,-19.0849 L 17.17,-19.4223 L 17.0635,-19.8026 L 17.0635,-20.1974  L 17.17,-20.5777 L 17.3752,-20.9151 L 17.6638,-21.1846 L 18.0144,-21.3663 L 18.401,-21.4466 L 18.795,-21.4197  L 19.1671,-21.2874 L 19.4897,-21.0597 L 19.7389,-20.7534 L 19.8962,-20.3912 L 19.95,-20 L 19.8962,-19.6088  L 19.7389,-19.2466 L 19.4897,-18.9403 L 19.1671,-18.7126 L 18.795,-18.5803 L 18.401,-18.5534 z M -51,20 L -51,-20 L -41,-20 L -41,20 z M 5,14 L 5,-14 L 23,-14 L 23,14 z M -55.4856,1.36628 L -55.8362,1.18461 L -56.1248,0.915077 L -56.33,0.577682 L -56.4365,0.197441 L -56.4365,-0.197441  L -56.33,-0.577682 L -56.1248,-0.915077 L -55.8362,-1.18461 L -55.4856,-1.36628 L -55.099,-1.44662 L -54.705,-1.41967  L -54.3329,-1.28743 L -54.0103,-1.05971 L -53.7611,-0.753396 L -53.6038,-0.391205 L -53.55,-0 L -53.6038,0.391205  L -53.7611,0.753396 L -54.0103,1.05971 L -54.3329,1.28743 L -54.705,1.41967 L -55.099,1.44662 z M -23.9856,1.36628 L -24.3362,1.18461 L -24.6248,0.915077 L -24.83,0.577682 L -24.9365,0.197441 L -24.9365,-0.197441  L -24.83,-0.577682 L -24.6248,-0.915077 L -24.3362,-1.18461 L -23.9856,-1.36628 L -23.599,-1.44662 L -23.205,-1.41967  L -22.8329,-1.28743 L -22.5103,-1.05971 L -22.2611,-0.753396 L -22.1038,-0.391205 L -22.05,-0 L -22.1038,0.391205  L -22.2611,0.753396 L -22.5103,1.05971 L -22.8329,1.28743 L -23.205,1.41967 L -23.599,1.44662 z M 18.0144,21.3663 L 17.6638,21.1846 L 17.3752,20.9151 L 17.17,20.5777 L 17.0635,20.1974 L 17.0635,19.8026  L 17.17,19.4223 L 17.3752,19.0849 L 17.6638,18.8154 L 18.0144,18.6337 L 18.401,18.5534 L 18.795,18.5803  L 19.1671,18.7126 L 19.4897,18.9403 L 19.7389,19.2466 L 19.8962,19.6088 L 19.95,20 L 19.8962,20.3912  L 19.7389,20.7534 L 19.4897,21.0597 L 19.1671,21.2874 L 18.795,21.4197 L 18.401,21.4466 z M 1.51443,23.8663 L 1.16381,23.6846 L 0.875219,23.4151 L 0.670044,23.0777 L 0.563506,22.6974 L 0.563506,22.3026  L 0.670044,21.9223 L 0.875219,21.5849 L 1.16381,21.3154 L 1.51443,21.1337 L 1.90105,21.0534 L 2.29501,21.0803  L 2.6671,21.2126 L 2.9897,21.4403 L 3.23891,21.7466 L 3.39623,22.1088 L 3.45,22.5 L 3.39623,22.8912  L 3.23891,23.2534 L 2.9897,23.5597 L 2.6671,23.7874 L 2.29501,23.9197 L 1.90105,23.9466 z M 33.8393,35.2559 L 33.8103,35.2541 L 33.7815,35.2501 L 33.7159,35.2412 L 33.6511,35.2276 L 33.6227,35.2216  L 33.5947,35.2135 L 33.5311,35.1953 L 33.469,35.1724 L 33.4417,35.1624 L 33.4152,35.1504 L 33.3549,35.1232  L 33.2967,35.0916 L 33.2711,35.0778 L 33.2466,35.0621 L 33.1908,35.0265 L 33.1378,34.9869 L 33.1145,34.9695  L 33.0925,34.9505 L 33.0424,34.9072 L 32.9751,34.8398 L 32.9318,34.7898 L 32.9127,34.7678 L 32.8953,34.7445  L 32.8558,34.6914 L 32.8201,34.6356 L 32.8045,34.6111 L 32.7906,34.5856 L 32.7591,34.5274 L 32.7318,34.4671  L 32.7199,34.4405 L 32.7098,34.4132 L 32.687,34.3511 L 32.6687,34.2875 L 32.6607,34.2596 L 32.6547,34.2311  L 32.641,34.1663 L 32.6321,34.1007 L 32.6282,34.0719 L 32.6263,34.0429 L 32.6222,33.9769 L 32.6228,33.9107  L 32.623,33.8816 L 32.6254,33.8526 L 32.6308,33.7866 L 32.6409,33.7212 L 32.6453,33.6925 L 32.6601,33.628  L 32.6666,33.5996 L 32.6752,33.5718 L 32.6946,33.5086 L 32.7051,33.4814 L 32.7291,33.4197 L 32.7415,33.3935  L 32.7698,33.3336 L 32.8024,33.276 L 32.8167,33.2507 L 32.8534,33.1956 L 32.8695,33.1714 L 32.91,33.119  L 32.9278,33.096 L 32.9472,33.0744 L 32.9914,33.0251 L 33.0391,32.9792 L 33.06,32.959 L 33.0824,32.9404  L 33.1332,32.898 L 33.1568,32.881 L 33.2106,32.8424 L 33.267,32.8078 L 33.2917,32.7925 L 33.3505,32.7621  L 33.3763,32.7487 L 33.4371,32.7225 L 33.4638,32.711 L 33.4913,32.7015 L 33.5538,32.6798 L 33.5819,32.6723  L 33.6459,32.6551 L 33.7109,32.6427 L 33.7394,32.6372 L 33.8052,32.6294 L 33.834,32.626 L 33.8631,32.6247  L 33.9292,32.6217 L 33.9583,32.6225 L 34.0244,32.6243 L 34.0903,32.6309 L 34.1193,32.6338 L 34.1479,32.6387  L 34.2131,32.65 L 34.2774,32.666 L 34.3056,32.673 L 34.3685,32.6936 L 34.3961,32.7026 L 34.423,32.7136  L 34.4843,32.7387 L 34.5436,32.7681 L 34.5697,32.781 L 34.5947,32.7958 L 34.6517,32.8294 L 34.6757,32.8459  L 34.7301,32.8836 L 34.7817,32.925 L 34.8044,32.9432 L 34.8528,32.9883 L 34.8741,33.0081 L 34.8939,33.0294  L 34.939,33.0779 L 34.9572,33.1006 L 34.9987,33.1521 L 35.0363,33.2066 L 35.0529,33.2305 L 35.0865,33.2875  L 35.1012,33.3126 L 35.1142,33.3386 L 35.1436,33.3979 L 35.1686,33.4592 L 35.1796,33.4861 L 35.1887,33.5138  L 35.2092,33.5767 L 35.2163,33.6049 L 35.2322,33.6691 L 35.2435,33.7343 L 35.2485,33.763 L 35.2514,33.7919  L 35.2579,33.8578 L 35.2597,33.924 L 35.2605,33.953 L 35.2575,34.0192 L 35.2562,34.0482 L 35.2528,34.0771  L 35.2451,34.1428 L 35.2396,34.1714 L 35.2271,34.2364 L 35.21,34.3003 L 35.2024,34.3284 L 35.1808,34.3909  L 35.1712,34.4184 L 35.1597,34.4451 L 35.1336,34.5059 L 35.1202,34.5317 L 35.0897,34.5905 L 35.0745,34.6153  L 35.0399,34.6717 L 35.0012,34.7254 L 34.9843,34.7491 L 34.9419,34.7999 L 34.9233,34.8222 L 34.9031,34.8432  L 34.8571,34.8908 L 34.8078,34.935 L 34.7862,34.9544 L 34.7632,34.9722 L 34.7109,35.0128 L 34.6867,35.0289  L 34.6315,35.0655 L 34.6062,35.0798 L 34.5486,35.1124 L 34.4888,35.1407 L 34.4625,35.1532 L 34.4008,35.1771  L 34.3737,35.1876 L 34.3104,35.2071 L 34.2826,35.2156 L 34.2543,35.2221 L 34.1898,35.2369 L 34.161,35.2414  L 34.0956,35.2515 L 34.0296,35.2569 L 34.0007,35.2592 L 33.9716,35.2595 L 33.9054,35.2601 z M -34.0429,35.2559 L -34.0719,35.2541 L -34.1007,35.2501 L -34.1663,35.2412 L -34.2311,35.2276 L -34.2596,35.2216  L -34.2875,35.2135 L -34.3511,35.1953 L -34.4132,35.1724 L -34.4405,35.1624 L -34.4671,35.1504 L -34.5274,35.1232  L -34.5856,35.0916 L -34.6111,35.0778 L -34.6356,35.0621 L -34.6914,35.0265 L -34.7445,34.9869 L -34.7678,34.9695  L -34.7898,34.9505 L -34.8398,34.9072 L -34.9072,34.8398 L -34.9505,34.7898 L -34.9695,34.7678 L -34.9869,34.7445  L -35.0265,34.6914 L -35.0621,34.6356 L -35.0778,34.6111 L -35.0916,34.5856 L -35.1232,34.5274 L -35.1504,34.4671  L -35.1624,34.4405 L -35.1724,34.4132 L -35.1953,34.3511 L -35.2135,34.2875 L -35.2216,34.2596 L -35.2276,34.2311  L -35.2412,34.1663 L -35.2501,34.1007 L -35.2541,34.0719 L -35.2559,34.0429 L -35.2601,33.9769 L -35.2595,33.9107  L -35.2592,33.8816 L -35.2569,33.8526 L -35.2515,33.7866 L -35.2414,33.7212 L -35.2369,33.6925 L -35.2221,33.628  L -35.2156,33.5996 L -35.2071,33.5718 L -35.1876,33.5086 L -35.1771,33.4814 L -35.1532,33.4197 L -35.1407,33.3935  L -35.1124,33.3336 L -35.0798,33.276 L -35.0655,33.2507 L -35.0289,33.1956 L -35.0128,33.1714 L -34.9722,33.119  L -34.9544,33.0961 L -34.935,33.0744 L -34.8908,33.0251 L -34.8432,32.9792 L -34.8222,32.959 L -34.7999,32.9404  L -34.7491,32.898 L -34.7254,32.881 L -34.6717,32.8424 L -34.6153,32.8078 L -34.5905,32.7925 L -34.5317,32.7621  L -34.5059,32.7487 L -34.4451,32.7225 L -34.4184,32.711 L -34.3909,32.7015 L -34.3284,32.6798 L -34.3003,32.6723  L -34.2364,32.6551 L -34.1714,32.6427 L -34.1428,32.6372 L -34.0771,32.6294 L -34.0482,32.626 L -34.0192,32.6247  L -33.953,32.6217 L -33.924,32.6225 L -33.8578,32.6243 L -33.7919,32.6309 L -33.763,32.6338 L -33.7343,32.6387  L -33.6691,32.65 L -33.6049,32.666 L -33.5767,32.673 L -33.5138,32.6936 L -33.4861,32.7026 L -33.4592,32.7136  L -33.3979,32.7387 L -33.3386,32.7681 L -33.3126,32.781 L -33.2875,32.7958 L -33.2305,32.8294 L -33.2066,32.8459  L -33.1521,32.8836 L -33.1006,32.925 L -33.0779,32.9432 L -33.0294,32.9883 L -33.0081,33.0081 L -32.9883,33.0294  L -32.9432,33.0779 L -32.925,33.1006 L -32.8836,33.1521 L -32.8459,33.2066 L -32.8294,33.2305 L -32.7958,33.2875  L -32.781,33.3126 L -32.7681,33.3386 L -32.7387,33.3979 L -32.7136,33.4592 L -32.7026,33.4861 L -32.6936,33.5138  L -32.673,33.5767 L -32.666,33.6049 L -32.65,33.6691 L -32.6387,33.7343 L -32.6338,33.763 L -32.6309,33.7919  L -32.6243,33.8578 L -32.6225,33.924 L -32.6217,33.953 L -32.6247,34.0192 L -32.626,34.0482 L -32.6294,34.0771  L -32.6372,34.1428 L -32.6427,34.1714 L -32.6551,34.2364 L -32.6723,34.3003 L -32.6798,34.3284 L -32.7015,34.3909  L -32.711,34.4184 L -32.7225,34.4451 L -32.7487,34.5059 L -32.7621,34.5317 L -32.7925,34.5905 L -32.8078,34.6153  L -32.8424,34.6717 L -32.881,34.7254 L -32.898,34.7491 L -32.9404,34.7999 L -32.959,34.8222 L -32.9792,34.8432  L -33.0251,34.8908 L -33.0744,34.935 L -33.0961,34.9544 L -33.119,34.9722 L -33.1714,35.0128 L -33.1956,35.0289  L -33.2507,35.0655 L -33.276,35.0798 L -33.3336,35.1124 L -33.3935,35.1407 L -33.4197,35.1532 L -33.4814,35.1771  L -33.5086,35.1876 L -33.5718,35.2071 L -33.5996,35.2156 L -33.628,35.2221 L -33.6925,35.2369 L -33.7212,35.2414  L -33.7866,35.2515 L -33.8526,35.2569 L -33.8816,35.2592 L -33.9107,35.2595 L -33.9769,35.2601 z M 18.0144,39.3663 L 17.6638,39.1846 L 17.3752,38.9151 L 17.17,38.5777 L 17.0635,38.1974 L 17.0635,37.8026  L 17.17,37.4223 L 17.3752,37.0849 L 17.6638,36.8154 L 18.0144,36.6337 L 18.401,36.5534 L 18.795,36.5803  L 19.1671,36.7126 L 19.4897,36.9403 L 19.7389,37.2466 L 19.8962,37.6088 L 19.95,38 L 19.8962,38.3912  L 19.7389,38.7534 L 19.4897,39.0597 L 19.1671,39.2874 L 18.795,39.4197 L 18.401,39.4466 z M 39.8497,41.2663 L 39.8207,41.2645 L 39.7919,41.2606 L 39.7263,41.2516 L 39.6616,41.238 L 39.6331,41.232  L 39.6051,41.2239 L 39.5415,41.2057 L 39.4794,41.1828 L 39.4521,41.1728 L 39.4256,41.1608 L 39.3653,41.1336  L 39.3071,41.1021 L 39.2815,41.0882 L 39.257,41.0725 L 39.2012,41.0369 L 39.1482,40.9973 L 39.1249,40.9799  L 39.1029,40.9609 L 39.0528,40.9176 L 38.9855,40.8502 L 38.9422,40.8002 L 38.9231,40.7782 L 38.9058,40.7549  L 38.8662,40.7018 L 38.8305,40.646 L 38.8149,40.6215 L 38.801,40.596 L 38.7695,40.5378 L 38.7422,40.4775  L 38.7303,40.451 L 38.7202,40.4237 L 38.6974,40.3615 L 38.6791,40.2979 L 38.6711,40.27 L 38.6651,40.2415  L 38.6515,40.1767 L 38.6425,40.1112 L 38.6386,40.0823 L 38.6368,40.0533 L 38.6326,39.9873 L 38.6332,39.9211  L 38.6334,39.892 L 38.6358,39.863 L 38.6412,39.797 L 38.6513,39.7316 L 38.6557,39.7029 L 38.6705,39.6384  L 38.677,39.61 L 38.6856,39.5822 L 38.705,39.519 L 38.7155,39.4918 L 38.7395,39.4301 L 38.7519,39.4039  L 38.7803,39.344 L 38.8128,39.2864 L 38.8271,39.2611 L 38.8638,39.206 L 38.8799,39.1818 L 38.9204,39.1294  L 38.9382,39.1065 L 38.9577,39.0848 L 39.0019,39.0355 L 39.0495,38.9896 L 39.0704,38.9694 L 39.0928,38.9508  L 39.1436,38.9084 L 39.1672,38.8914 L 39.221,38.8528 L 39.2774,38.8182 L 39.3022,38.803 L 39.3609,38.7725  L 39.3867,38.7591 L 39.4475,38.7329 L 39.4742,38.7214 L 39.5017,38.7119 L 39.5642,38.6902 L 39.5923,38.6827  L 39.6563,38.6656 L 39.7213,38.6531 L 39.7498,38.6476 L 39.8156,38.6398 L 39.8444,38.6364 L 39.8735,38.6351  L 39.9396,38.6321 L 39.9687,38.6329 L 40.0349,38.6347 L 40.1007,38.6413 L 40.1297,38.6442 L 40.1583,38.6491  L 40.2235,38.6604 L 40.2878,38.6764 L 40.316,38.6834 L 40.3789,38.704 L 40.4065,38.713 L 40.4335,38.724  L 40.4947,38.7491 L 40.554,38.7785 L 40.5801,38.7914 L 40.6051,38.8062 L 40.6621,38.8398 L 40.6861,38.8563  L 40.7405,38.894 L 40.7921,38.9354 L 40.8148,38.9537 L 40.8632,38.9987 L 40.8845,39.0185 L 40.9043,39.0398  L 40.9494,39.0883 L 40.9676,39.111 L 41.0091,39.1626 L 41.0467,39.217 L 41.0633,39.2409 L 41.0969,39.2979  L 41.1116,39.323 L 41.1246,39.349 L 41.154,39.4083 L 41.179,39.4696 L 41.19,39.4965 L 41.1991,39.5242  L 41.2196,39.5871 L 41.2267,39.6153 L 41.2426,39.6795 L 41.2539,39.7448 L 41.2589,39.7734 L 41.2618,39.8023  L 41.2683,39.8682 L 41.2701,39.9344 L 41.2709,39.9634 L 41.2679,40.0296 L 41.2666,40.0586 L 41.2632,40.0875  L 41.2555,40.1532 L 41.25,40.1818 L 41.2375,40.2468 L 41.2204,40.3107 L 41.2129,40.3388 L 41.1912,40.4013  L 41.1816,40.4288 L 41.1701,40.4555 L 41.144,40.5163 L 41.1306,40.5422 L 41.1001,40.6009 L 41.0849,40.6257  L 41.0503,40.6821 L 41.0117,40.7359 L 40.9947,40.7595 L 40.9523,40.8103 L 40.9337,40.8326 L 40.9135,40.8536  L 40.8675,40.9012 L 40.8183,40.9454 L 40.7966,40.9648 L 40.7736,40.9826 L 40.7213,41.0232 L 40.6971,41.0393  L 40.642,41.0759 L 40.6166,41.0902 L 40.559,41.1228 L 40.4992,41.1511 L 40.4729,41.1636 L 40.4112,41.1875  L 40.3841,41.1981 L 40.3208,41.2175 L 40.293,41.226 L 40.2647,41.2325 L 40.2002,41.2473 L 40.1714,41.2518  L 40.106,41.2619 L 40.0401,41.2673 L 40.0111,41.2696 L 39.982,41.2699 L 39.9158,41.2705 z M -40.0533,41.2663 L -40.0823,41.2645 L -40.1112,41.2606 L -40.1767,41.2516 L -40.2415,41.238 L -40.27,41.232  L -40.2979,41.2239 L -40.3615,41.2057 L -40.4237,41.1828 L -40.451,41.1728 L -40.4775,41.1608 L -40.5378,41.1336  L -40.596,41.1021 L -40.6215,41.0882 L -40.646,41.0725 L -40.7018,41.0369 L -40.7549,40.9973 L -40.7782,40.9799  L -40.8002,40.9609 L -40.8502,40.9176 L -40.9176,40.8502 L -40.9609,40.8002 L -40.9799,40.7782 L -40.9973,40.7549  L -41.0369,40.7018 L -41.0725,40.646 L -41.0882,40.6215 L -41.1021,40.596 L -41.1336,40.5378 L -41.1608,40.4775  L -41.1728,40.451 L -41.1828,40.4237 L -41.2057,40.3615 L -41.2239,40.2979 L -41.232,40.27 L -41.238,40.2415  L -41.2516,40.1767 L -41.2606,40.1112 L -41.2645,40.0823 L -41.2663,40.0533 L -41.2705,39.9873 L -41.2699,39.9211  L -41.2696,39.892 L -41.2673,39.863 L -41.2619,39.797 L -41.2518,39.7316 L -41.2473,39.7029 L -41.2325,39.6384  L -41.226,39.61 L -41.2175,39.5822 L -41.1981,39.519 L -41.1875,39.4918 L -41.1636,39.4301 L -41.1511,39.4039  L -41.1228,39.344 L -41.0902,39.2864 L -41.0759,39.2611 L -41.0393,39.206 L -41.0232,39.1818 L -40.9826,39.1294  L -40.9648,39.1065 L -40.9454,39.0848 L -40.9012,39.0355 L -40.8536,38.9896 L -40.8326,38.9694 L -40.8103,38.9508  L -40.7595,38.9084 L -40.7359,38.8914 L -40.6821,38.8528 L -40.6257,38.8182 L -40.6009,38.803 L -40.5422,38.7725  L -40.5163,38.7591 L -40.4555,38.7329 L -40.4288,38.7214 L -40.4013,38.7119 L -40.3388,38.6902 L -40.3107,38.6827  L -40.2468,38.6656 L -40.1818,38.6531 L -40.1532,38.6476 L -40.0875,38.6398 L -40.0586,38.6364 L -40.0296,38.6351  L -39.9634,38.6321 L -39.9344,38.6329 L -39.8682,38.6347 L -39.8023,38.6413 L -39.7734,38.6442 L -39.7448,38.6491  L -39.6795,38.6604 L -39.6153,38.6764 L -39.5871,38.6834 L -39.5242,38.704 L -39.4965,38.713 L -39.4696,38.724  L -39.4083,38.7491 L -39.349,38.7785 L -39.323,38.7914 L -39.2979,38.8062 L -39.2409,38.8398 L -39.217,38.8563  L -39.1626,38.894 L -39.111,38.9354 L -39.0883,38.9537 L -39.0398,38.9987 L -39.0185,39.0185 L -38.9987,39.0398  L -38.9537,39.0883 L -38.9354,39.111 L -38.894,39.1626 L -38.8563,39.217 L -38.8398,39.2409 L -38.8062,39.2979  L -38.7914,39.323 L -38.7785,39.349 L -38.7491,39.4083 L -38.724,39.4696 L -38.713,39.4965 L -38.704,39.5242  L -38.6834,39.5871 L -38.6764,39.6153 L -38.6604,39.6795 L -38.6491,39.7448 L -38.6442,39.7734 L -38.6413,39.8023  L -38.6347,39.8682 L -38.6329,39.9344 L -38.6321,39.9634 L -38.6351,40.0296 L -38.6364,40.0586 L -38.6398,40.0875  L -38.6476,40.1532 L -38.6531,40.1818 L -38.6656,40.2468 L -38.6827,40.3107 L -38.6902,40.3388 L -38.7119,40.4013  L -38.7214,40.4288 L -38.7329,40.4555 L -38.7591,40.5163 L -38.7725,40.5422 L -38.803,40.6009 L -38.8182,40.6257  L -38.8528,40.6821 L -38.8914,40.7359 L -38.9084,40.7595 L -38.9508,40.8103 L -38.9694,40.8326 L -38.9896,40.8536  L -39.0355,40.9012 L -39.0848,40.9454 L -39.1065,40.9648 L -39.1294,40.9826 L -39.1818,41.0232 L -39.206,41.0393  L -39.2611,41.0759 L -39.2864,41.0902 L -39.344,41.1228 L -39.4039,41.1511 L -39.4301,41.1636 L -39.4918,41.1875  L -39.519,41.1981 L -39.5822,41.2175 L -39.61,41.226 L -39.6384,41.2325 L -39.7029,41.2473 L -39.7316,41.2518  L -39.797,41.2619 L -39.863,41.2673 L -39.892,41.2696 L -39.9211,41.2699 L -39.9873,41.2705 z M 0,53 L 0,45 L 28,45 L 28,53 z "
     stroke="black"
     fill="lightgray"
     stroke-width="0.5"
     id="path7395"
     style="stroke-width:0.00035278;stroke-dasharray:none;fill:none" />
</svg>
