<?xml version="1.0" standalone="no"?>
<!DOCTYPE svg PUBLIC "-//W3C//DTD SVG 1.1//EN" "http://www.w3.org/Graphics/SVG/1.1/DTD/svg11.dtd">
<svg width="36mm" height="60mm" viewBox="-28 -30 36 60" xmlns="http://www.w3.org/2000/svg" version="1.1">
<title>OpenSCAD Model</title>
<path d="
M 7.5,14 L 5,14 L 5,-14 L 7.5,-14 L 7.5,-30 L -27.5,-30
 L -27.5,30 L 7.5,30 z
M 1.51443,-21.1337 L 1.16381,-21.3154 L 0.875219,-21.5849 L 0.670044,-21.9223 L 0.563506,-22.3026 L 0.563506,-22.6974
 L 0.670044,-23.0777 L 0.875219,-23.4151 L 1.16381,-23.6846 L 1.51443,-23.8663 L 1.90105,-23.9466 L 2.29501,-23.9197
 L 2.6671,-23.7874 L 2.9897,-23.5597 L 3.23891,-23.2534 L 3.39623,-22.8912 L 3.45,-22.5 L 3.39623,-22.1088
 L 3.23891,-21.7466 L 2.9897,-21.4403 L 2.6671,-21.2126 L 2.29501,-21.0803 L 1.90105,-21.0534 z
M -23.9856,1.36628 L -24.3362,1.18461 L -24.6248,0.915077 L -24.83,0.577682 L -24.9365,0.197441 L -24.9365,-0.197441
 L -24.83,-0.577682 L -24.6248,-0.915077 L -24.3362,-1.18461 L -23.9856,-1.36628 L -23.599,-1.44662 L -23.205,-1.41967
 L -22.8329,-1.28743 L -22.5103,-1.05971 L -22.2611,-0.753396 L -22.1038,-0.391205 L -22.05,-0 L -22.1038,0.391205
 L -22.2611,0.753396 L -22.5103,1.05971 L -22.8329,1.28743 L -23.205,1.41967 L -23.599,1.44662 z
M 1.51443,23.8663 L 1.16381,23.6846 L 0.875219,23.4151 L 0.670044,23.0777 L 0.563506,22.6974 L 0.563506,22.3026
 L 0.670044,21.9223 L 0.875219,21.5849 L 1.16381,21.3154 L 1.51443,21.1337 L 1.90105,21.0534 L 2.29501,21.0803
 L 2.6671,21.2126 L 2.9897,21.4403 L 3.23891,21.7466 L 3.39623,22.1088 L 3.45,22.5 L 3.39623,22.8912
 L 3.23891,23.2534 L 2.9897,23.5597 L 2.6671,23.7874 L 2.29501,23.9197 L 1.90105,23.9466 z
" stroke="black" fill="lightgray" stroke-width="0.5"/>
</svg>
