<?xml version="1.0" standalone="no"?>
<!DOCTYPE svg PUBLIC "-//W3C//DTD SVG 1.1//EN" "http://www.w3.org/Graphics/SVG/1.1/DTD/svg11.dtd">
<svg width="90mm" height="90mm" viewBox="-45 -45 90 90" xmlns="http://www.w3.org/2000/svg" version="1.1">
<title>OpenSCAD Model</title>
<path d="
M -44.2012,-39.9017 L -44.1779,-39.504 L -44.1174,-39.1102 L -44.0203,-38.7238 L -43.8875,-38.3482 L -43.72,-37.9866
 L -43.5195,-37.6424 L -43.2876,-37.3184 L -43.0264,-37.0176 L -42.7381,-36.7426 L -42.4254,-36.4957 L -42.0909,-36.2793
 L -41.7376,-36.0951 L -41.3686,-35.9448 L -40.9872,-35.8297 L -40.5967,-35.7508 L -40.2005,-35.7088 L -39.8021,-35.7042
 L -39.405,-35.7368 L -39.0128,-35.8065 L -38.6287,-35.9126 L -38.2563,-36.0542 L -37.8988,-36.2301 L -37.5594,-36.4387
 L -37.2409,-36.6781 L -36.9463,-36.9463 L -36.6781,-37.2409 L -36.4387,-37.5594 L -36.2301,-37.8988 L -36.0542,-38.2563
 L -35.9126,-38.6287 L -35.8065,-39.0128 L -35.7368,-39.405 L -35.7042,-39.8021 L -35.7088,-40.2005 L -35.7508,-40.5967
 L -35.8297,-40.9872 L -35.9448,-41.3686 L -36.0951,-41.7376 L -36.2793,-42.0909 L -36.4957,-42.4254 L -36.7426,-42.7381
 L -37.0176,-43.0264 L -37.3184,-43.2876 L -37.6424,-43.5195 L -37.9866,-43.72 L -38.3482,-43.8875 L -38.7238,-44.0203
 L -39.1102,-44.1174 L -39.504,-44.1779 L -39.9017,-44.2012 L -40.2999,-44.1872 L -40.695,-44.136 L -41.0836,-44.048
 L -41.4622,-43.924 L -41.8275,-43.7651 L -42.1764,-43.5726 L -42.5057,-43.3484 L -42.8126,-43.0943 L -43.0943,-42.8126
 L -43.3484,-42.5057 L -43.5726,-42.1764 L -43.7651,-41.8275 L -43.924,-41.4622 L -44.048,-41.0836 L -44.136,-40.695
 L -44.1872,-40.2999 z
M -42.6945,-39.7554 L -42.6945,-40.1477 L -42.6387,-40.5361 L -42.5281,-40.9126 L -42.3651,-41.2695 L -42.153,-41.5995
 L -41.8961,-41.8961 L -41.5995,-42.153 L -41.2695,-42.3651 L -40.9126,-42.5281 L -40.5361,-42.6387 L -40.1477,-42.6945
 L -39.7554,-42.6945 L -39.367,-42.6387 L -38.9905,-42.5281 L -38.6336,-42.3651 L -38.3035,-42.153 L -38.007,-41.8961
 L -37.75,-41.5995 L -37.5379,-41.2695 L -37.3749,-40.9126 L -37.2644,-40.5361 L -37.2085,-40.1477 L -37.2085,-39.7554
 L -37.2644,-39.367 L -37.3749,-38.9905 L -37.5379,-38.6336 L -37.75,-38.3035 L -38.007,-38.007 L -38.3035,-37.75
 L -38.6336,-37.5379 L -38.9905,-37.3749 L -39.367,-37.2644 L -39.7554,-37.2085 L -40.1477,-37.2085 L -40.5361,-37.2644
 L -40.9126,-37.3749 L -41.2695,-37.5379 L -41.5995,-37.75 L -41.8961,-38.007 L -42.153,-38.3035 L -42.3651,-38.6336
 L -42.5281,-38.9905 L -42.6387,-39.367 z
M -44.1989,40.101 L -44.1662,40.498 L -44.0966,40.8903 L -43.9904,41.2743 L -43.8488,41.6467 L -43.673,42.0042
 L -43.4644,42.3437 L -43.2249,42.6621 L -42.9567,42.9567 L -42.6621,43.2249 L -42.3437,43.4644 L -42.0042,43.673
 L -41.6467,43.8488 L -41.2743,43.9904 L -40.8903,44.0966 L -40.498,44.1662 L -40.101,44.1989 L -39.7026,44.1942
 L -39.3064,44.1523 L -38.9158,44.0734 L -38.5344,43.9583 L -38.1654,43.808 L -37.8122,43.6238 L -37.4777,43.4073
 L -37.165,43.1605 L -36.8767,42.8855 L -36.6155,42.5846 L -36.3836,42.2607 L -36.183,41.9164 L -36.0156,41.5549
 L -35.8827,41.1793 L -35.7856,40.7929 L -35.7252,40.3991 L -35.7018,40.0014 L -35.7158,39.6032 L -35.7671,39.2081
 L -35.8551,38.8195 L -35.9791,38.4409 L -36.138,38.0755 L -36.3304,37.7267 L -36.5547,37.3974 L -36.8088,37.0905
 L -37.0905,36.8088 L -37.3974,36.5547 L -37.7267,36.3304 L -38.0755,36.138 L -38.4409,35.9791 L -38.8195,35.8551
 L -39.2081,35.7671 L -39.6032,35.7158 L -40.0014,35.7018 L -40.3991,35.7252 L -40.7929,35.7856 L -41.1793,35.8827
 L -41.5549,36.0156 L -41.9164,36.183 L -42.2607,36.3836 L -42.5846,36.6155 L -42.8855,36.8767 L -43.1605,37.165
 L -43.4073,37.4777 L -43.6238,37.8122 L -43.808,38.1654 L -43.9583,38.5344 L -44.0734,38.9158 L -44.1523,39.3064
 L -44.1942,39.7026 z
M -42.6945,40.1477 L -42.6945,39.7554 L -42.6387,39.367 L -42.5281,38.9905 L -42.3651,38.6336 L -42.153,38.3035
 L -41.8961,38.007 L -41.5995,37.75 L -41.2695,37.5379 L -40.9126,37.3749 L -40.5361,37.2644 L -40.1477,37.2085
 L -39.7554,37.2085 L -39.367,37.2644 L -38.9905,37.3749 L -38.6336,37.5379 L -38.3035,37.75 L -38.007,38.007
 L -37.75,38.3035 L -37.5379,38.6336 L -37.3749,38.9905 L -37.2644,39.367 L -37.2085,39.7554 L -37.2085,40.1477
 L -37.2644,40.5361 L -37.3749,40.9126 L -37.5379,41.2695 L -37.75,41.5995 L -38.007,41.8961 L -38.3035,42.153
 L -38.6336,42.3651 L -38.9905,42.5281 L -39.367,42.6387 L -39.7554,42.6945 L -40.1477,42.6945 L -40.5361,42.6387
 L -40.9126,42.5281 L -41.2695,42.3651 L -41.5995,42.153 L -41.8961,41.8961 L -42.153,41.5995 L -42.3651,41.2695
 L -42.5281,40.9126 L -42.6387,40.5361 z
M 35.7018,-40.0014 L 35.7158,-39.6032 L 35.7671,-39.2081 L 35.8551,-38.8195 L 35.9791,-38.4409 L 36.138,-38.0755
 L 36.3304,-37.7267 L 36.5547,-37.3974 L 36.8088,-37.0905 L 37.0905,-36.8088 L 37.3974,-36.5547 L 37.7267,-36.3304
 L 38.0755,-36.138 L 38.4409,-35.9791 L 38.8195,-35.8551 L 39.2081,-35.7671 L 39.6032,-35.7158 L 40.0014,-35.7018
 L 40.3991,-35.7252 L 40.7929,-35.7856 L 41.1793,-35.8827 L 41.5549,-36.0156 L 41.9164,-36.183 L 42.2607,-36.3836
 L 42.5846,-36.6155 L 42.8855,-36.8767 L 43.1605,-37.165 L 43.4073,-37.4777 L 43.6238,-37.8122 L 43.808,-38.1654
 L 43.9583,-38.5344 L 44.0734,-38.9158 L 44.1523,-39.3064 L 44.1942,-39.7026 L 44.1989,-40.101 L 44.1662,-40.498
 L 44.0966,-40.8903 L 43.9904,-41.2743 L 43.8488,-41.6467 L 43.673,-42.0042 L 43.4644,-42.3437 L 43.2249,-42.6621
 L 42.9567,-42.9567 L 42.6621,-43.2249 L 42.3437,-43.4644 L 42.0042,-43.673 L 41.6467,-43.8488 L 41.2743,-43.9904
 L 40.8903,-44.0966 L 40.498,-44.1662 L 40.101,-44.1989 L 39.7026,-44.1942 L 39.3064,-44.1523 L 38.9158,-44.0734
 L 38.5344,-43.9583 L 38.1654,-43.808 L 37.8122,-43.6238 L 37.4777,-43.4073 L 37.165,-43.1605 L 36.8767,-42.8855
 L 36.6155,-42.5846 L 36.3836,-42.2607 L 36.183,-41.9164 L 36.0156,-41.5549 L 35.8827,-41.1793 L 35.7856,-40.7929
 L 35.7252,-40.3991 z
M 37.2085,-39.7554 L 37.2085,-40.1477 L 37.2644,-40.5361 L 37.3749,-40.9126 L 37.5379,-41.2695 L 37.75,-41.5995
 L 38.007,-41.8961 L 38.3035,-42.153 L 38.6336,-42.3651 L 38.9905,-42.5281 L 39.367,-42.6387 L 39.7554,-42.6945
 L 40.1477,-42.6945 L 40.5361,-42.6387 L 40.9126,-42.5281 L 41.2695,-42.3651 L 41.5995,-42.153 L 41.8961,-41.8961
 L 42.153,-41.5995 L 42.3651,-41.2695 L 42.5281,-40.9126 L 42.6387,-40.5361 L 42.6945,-40.1477 L 42.6945,-39.7554
 L 42.6387,-39.367 L 42.5281,-38.9905 L 42.3651,-38.6336 L 42.153,-38.3035 L 41.8961,-38.007 L 41.5995,-37.75
 L 41.2695,-37.5379 L 40.9126,-37.3749 L 40.5361,-37.2644 L 40.1477,-37.2085 L 39.7554,-37.2085 L 39.367,-37.2644
 L 38.9905,-37.3749 L 38.6336,-37.5379 L 38.3035,-37.75 L 38.007,-38.007 L 37.75,-38.3035 L 37.5379,-38.6336
 L 37.3749,-38.9905 L 37.2644,-39.367 z
M 35.7042,39.8021 L 35.7088,40.2005 L 35.7508,40.5967 L 35.8297,40.9872 L 35.9448,41.3686 L 36.0951,41.7376
 L 36.2793,42.0909 L 36.4957,42.4254 L 36.7426,42.7381 L 37.0176,43.0264 L 37.3184,43.2876 L 37.6424,43.5195
 L 37.9866,43.72 L 38.3482,43.8875 L 38.7238,44.0203 L 39.1102,44.1174 L 39.504,44.1779 L 39.9017,44.2012
 L 40.2999,44.1872 L 40.695,44.136 L 41.0836,44.048 L 41.4622,43.924 L 41.8275,43.7651 L 42.1764,43.5726
 L 42.5057,43.3484 L 42.8126,43.0943 L 43.0943,42.8126 L 43.3484,42.5057 L 43.5726,42.1764 L 43.7651,41.8275
 L 43.924,41.4622 L 44.048,41.0836 L 44.136,40.695 L 44.1872,40.2999 L 44.2012,39.9017 L 44.1779,39.504
 L 44.1174,39.1102 L 44.0203,38.7238 L 43.8875,38.3482 L 43.72,37.9866 L 43.5195,37.6424 L 43.2876,37.3184
 L 43.0264,37.0176 L 42.7381,36.7426 L 42.4254,36.4957 L 42.0909,36.2793 L 41.7376,36.0951 L 41.3686,35.9448
 L 40.9872,35.8297 L 40.5967,35.7508 L 40.2005,35.7088 L 39.8021,35.7042 L 39.405,35.7368 L 39.0128,35.8065
 L 38.6287,35.9126 L 38.2563,36.0542 L 37.8988,36.2301 L 37.5594,36.4387 L 37.2409,36.6781 L 36.9463,36.9463
 L 36.6781,37.2409 L 36.4387,37.5594 L 36.2301,37.8988 L 36.0542,38.2563 L 35.9126,38.6287 L 35.8065,39.0128
 L 35.7368,39.405 z
M 37.2085,40.1477 L 37.2085,39.7554 L 37.2644,39.367 L 37.3749,38.9905 L 37.5379,38.6336 L 37.75,38.3035
 L 38.007,38.007 L 38.3035,37.75 L 38.6336,37.5379 L 38.9905,37.3749 L 39.367,37.2644 L 39.7554,37.2085
 L 40.1477,37.2085 L 40.5361,37.2644 L 40.9126,37.3749 L 41.2695,37.5379 L 41.5995,37.75 L 41.8961,38.007
 L 42.153,38.3035 L 42.3651,38.6336 L 42.5281,38.9905 L 42.6387,39.367 L 42.6945,39.7554 L 42.6945,40.1477
 L 42.6387,40.5361 L 42.5281,40.9126 L 42.3651,41.2695 L 42.153,41.5995 L 41.8961,41.8961 L 41.5995,42.153
 L 41.2695,42.3651 L 40.9126,42.5281 L 40.5361,42.6387 L 40.1477,42.6945 L 39.7554,42.6945 L 39.367,42.6387
 L 38.9905,42.5281 L 38.6336,42.3651 L 38.3035,42.153 L 38.007,41.8961 L 37.75,41.5995 L 37.5379,41.2695
 L 37.3749,40.9126 L 37.2644,40.5361 z
" stroke="black" fill="lightgray" stroke-width="0.5"/>
</svg>
