<?xml version="1.0" encoding="UTF-8" standalone="no"?>
<svg
   width="122mm"
   height="122mm"
   viewBox="-61 -61 122 122"
   version="1.1"
   id="svg84"
   sodipodi:docname="nextLayer.svg"
   inkscape:version="1.2.2 (b0a8486, 2022-12-01)"
   xmlns:inkscape="http://www.inkscape.org/namespaces/inkscape"
   xmlns:sodipodi="http://sodipodi.sourceforge.net/DTD/sodipodi-0.dtd"
   xmlns="http://www.w3.org/2000/svg"
   xmlns:svg="http://www.w3.org/2000/svg"
   xmlns:rdf="http://www.w3.org/1999/02/22-rdf-syntax-ns#"
   xmlns:cc="http://creativecommons.org/ns#"
   xmlns:dc="http://purl.org/dc/elements/1.1/">
  <defs
     id="defs88" />
  <sodipodi:namedview
     id="namedview86"
     pagecolor="#ffffff"
     bordercolor="#000000"
     borderopacity="0.25"
     inkscape:showpageshadow="2"
     inkscape:pageopacity="0.0"
     inkscape:pagecheckerboard="0"
     inkscape:deskcolor="#d1d1d1"
     inkscape:document-units="mm"
     showgrid="false"
     inkscape:zoom="0.50972781"
     inkscape:cx="121.63354"
     inkscape:cy="207.95412"
     inkscape:window-width="1309"
     inkscape:window-height="456"
     inkscape:window-x="72"
     inkscape:window-y="179"
     inkscape:window-maximized="0"
     inkscape:current-layer="svg84" />
  <title
     id="title80">OpenSCAD Model</title>
  <path
     d=" M 1.0646,60.9907 L 2.12887,60.9628 L 3.19249,60.9164 L 4.25515,60.8514 L 5.3165,60.7679 L 6.37624,60.6658  L 7.43403,60.5453 L 8.48956,60.4064 L 9.5425,60.249 L 10.5925,60.0733 L 11.6393,59.8793 L 12.6826,59.667  L 13.722,59.4366 L 14.7572,59.188 L 15.788,58.9215 L 16.8139,58.637 L 17.8347,58.3346 L 18.85,58.0144  L 19.8597,57.6766 L 20.8632,57.3213 L 21.8604,56.9484 L 22.851,56.5582 L 23.8346,56.1508 L 24.8109,55.7263  L 25.7797,55.2848 L 26.7406,54.8264 L 27.6934,54.3514 L 28.6378,53.8598 L 29.5734,53.3518 L 30.5,52.8275  L 31.4173,52.2872 L 32.3251,51.7309 L 33.223,51.1589 L 34.1108,50.5713 L 34.9882,49.9683 L 35.8549,49.35  L 36.7107,48.7168 L 37.5554,48.0687 L 38.3885,47.4059 L 39.21,46.7287 L 40.0196,46.0373 L 40.817,45.3318  L 41.6019,44.6126 L 42.3742,43.8797 L 43.1335,43.1335 L 43.8797,42.3742 L 44.6126,41.6019 L 45.3318,40.817  L 46.0373,40.0196 L 46.7287,39.21 L 47.4059,38.3885 L 48.0687,37.5554 L 48.7168,36.7107 L 49.35,35.8549  L 49.9683,34.9882 L 50.5713,34.1108 L 51.1589,33.223 L 51.7309,32.3251 L 52.2872,31.4173 L 52.8275,30.5  L 53.3518,29.5734 L 53.8598,28.6378 L 54.3514,27.6934 L 54.8264,26.7406 L 55.2848,25.7797 L 55.7263,24.8109  L 56.1508,23.8346 L 56.5582,22.851 L 56.9484,21.8604 L 57.3213,20.8632 L 57.6766,19.8597 L 58.0144,18.85  L 58.3346,17.8347 L 58.637,16.8139 L 58.9215,15.788 L 59.188,14.7572 L 59.4366,13.722 L 59.667,12.6826  L 59.8793,11.6393 L 60.0733,10.5925 L 60.249,9.5425 L 60.4064,8.48956 L 60.5453,7.43403 L 60.6658,6.37624  L 60.7679,5.3165 L 60.8514,4.25515 L 60.9164,3.19249 L 60.9628,2.12887 L 60.9907,1.0646 L 61,-0  L 60.9907,-1.0646 L 60.9628,-2.12887 L 60.9164,-3.19249 L 60.8514,-4.25515 L 60.7679,-5.3165 L 60.6658,-6.37624  L 60.5453,-7.43403 L 60.4064,-8.48956 L 60.249,-9.5425 L 60.0733,-10.5925 L 59.8793,-11.6393 L 59.667,-12.6826  L 59.4366,-13.722 L 59.188,-14.7572 L 58.9215,-15.788 L 58.637,-16.8139 L 58.3346,-17.8347 L 58.0144,-18.85  L 57.6766,-19.8597 L 57.3213,-20.8632 L 56.9484,-21.8604 L 56.5582,-22.851 L 56.1508,-23.8346 L 55.7263,-24.8109  L 55.2848,-25.7797 L 54.8264,-26.7406 L 54.3514,-27.6934 L 53.8598,-28.6378 L 53.3518,-29.5734 L 52.8275,-30.5  L 52.2872,-31.4173 L 51.7309,-32.3251 L 51.1589,-33.223 L 50.5713,-34.1108 L 49.9683,-34.9882 L 49.35,-35.8549  L 48.7168,-36.7107 L 48.0687,-37.5554 L 47.4059,-38.3885 L 46.7287,-39.21 L 46.0373,-40.0196 L 45.3318,-40.817  L 44.6126,-41.6019 L 43.8797,-42.3742 L 43.1335,-43.1335 L 42.3742,-43.8797 L 41.6019,-44.6126 L 40.817,-45.3318  L 40.0196,-46.0373 L 39.21,-46.7287 L 38.3885,-47.4059 L 37.5554,-48.0687 L 36.7107,-48.7168 L 35.8549,-49.35  L 34.9882,-49.9683 L 34.1108,-50.5713 L 33.223,-51.1589 L 32.3251,-51.7309 L 31.4173,-52.2872 L 30.5,-52.8275  L 29.5734,-53.3518 L 28.6378,-53.8598 L 27.6934,-54.3514 L 26.7406,-54.8264 L 25.7797,-55.2848 L 24.8109,-55.7263  L 23.8346,-56.1508 L 22.851,-56.5582 L 21.8604,-56.9484 L 20.8632,-57.3213 L 19.8597,-57.6766 L 18.85,-58.0144  L 17.8347,-58.3346 L 16.8139,-58.637 L 15.788,-58.9215 L 14.7572,-59.188 L 13.722,-59.4366 L 12.6826,-59.667  L 11.6393,-59.8793 L 10.5925,-60.0733 L 9.5425,-60.249 L 8.48956,-60.4064 L 7.43403,-60.5453 L 6.37624,-60.6658  L 5.3165,-60.7679 L 4.25515,-60.8514 L 3.19249,-60.9164 L 2.12887,-60.9628 L 1.0646,-60.9907 L 0,-61  L -1.0646,-60.9907 L -2.12887,-60.9628 L -3.19249,-60.9164 L -4.25515,-60.8514 L -5.3165,-60.7679 L -6.37624,-60.6658  L -7.43403,-60.5453 L -8.48956,-60.4064 L -9.5425,-60.249 L -10.5925,-60.0733 L -11.6393,-59.8793 L -12.6826,-59.667  L -13.722,-59.4366 L -14.7572,-59.188 L -15.788,-58.9215 L -16.8139,-58.637 L -17.8347,-58.3346 L -18.85,-58.0144  L -19.8597,-57.6766 L -20.8632,-57.3213 L -21.8604,-56.9484 L -22.851,-56.5582 L -23.8346,-56.1508 L -24.8109,-55.7263  L -25.7797,-55.2848 L -26.7406,-54.8264 L -27.6934,-54.3514 L -28.6378,-53.8598 L -29.5734,-53.3518 L -30.5,-52.8275  L -31.4173,-52.2872 L -32.3251,-51.7309 L -33.223,-51.1589 L -34.1108,-50.5713 L -34.9882,-49.9683 L -35.8549,-49.35  L -36.7107,-48.7168 L -37.5554,-48.0687 L -38.3885,-47.4059 L -39.21,-46.7287 L -40.0196,-46.0373 L -40.817,-45.3318  L -41.6019,-44.6126 L -42.3742,-43.8797 L -43.1335,-43.1335 L -43.8797,-42.3742 L -44.6126,-41.6019 L -45.3318,-40.817  L -46.0373,-40.0196 L -46.7287,-39.21 L -47.4059,-38.3885 L -48.0687,-37.5554 L -48.7168,-36.7107 L -49.35,-35.8549  L -49.9683,-34.9882 L -50.5713,-34.1108 L -51.1589,-33.223 L -51.7309,-32.3251 L -52.2872,-31.4173 L -52.8275,-30.5  L -53.3518,-29.5734 L -53.8598,-28.6378 L -54.3514,-27.6934 L -54.8264,-26.7406 L -55.2848,-25.7797 L -55.7263,-24.8109  L -56.1508,-23.8346 L -56.5582,-22.851 L -56.9484,-21.8604 L -57.3213,-20.8632 L -57.6766,-19.8597 L -58.0144,-18.85  L -58.3346,-17.8347 L -58.637,-16.8139 L -58.9215,-15.788 L -59.188,-14.7572 L -59.4366,-13.722 L -59.667,-12.6826  L -59.8793,-11.6393 L -60.0733,-10.5925 L -60.249,-9.5425 L -60.4064,-8.48956 L -60.5453,-7.43403 L -60.6658,-6.37624  L -60.7679,-5.3165 L -60.8514,-4.25515 L -60.9164,-3.19249 L -60.9628,-2.12887 L -60.9907,-1.0646 L -61,-0  L -60.9907,1.0646 L -60.9628,2.12887 L -60.9164,3.19249 L -60.8514,4.25515 L -60.7679,5.3165 L -60.6658,6.37624  L -60.5453,7.43403 L -60.4064,8.48956 L -60.249,9.5425 L -60.0733,10.5925 L -59.8793,11.6393 L -59.667,12.6826  L -59.4366,13.722 L -59.188,14.7572 L -58.9215,15.788 L -58.637,16.8139 L -58.3346,17.8347 L -58.0144,18.85  L -57.6766,19.8597 L -57.3213,20.8632 L -56.9484,21.8604 L -56.5582,22.851 L -56.1508,23.8346 L -55.7263,24.8109  L -55.2848,25.7797 L -54.8264,26.7406 L -54.3514,27.6934 L -53.8598,28.6378 L -53.3518,29.5734 L -52.8275,30.5  L -52.2872,31.4173 L -51.7309,32.3251 L -51.1589,33.223 L -50.5713,34.1108 L -49.9683,34.9882 L -49.35,35.8549  L -48.7168,36.7107 L -48.0687,37.5554 L -47.4059,38.3885 L -46.7287,39.21 L -46.0373,40.0196 L -45.3318,40.817  L -44.6126,41.6019 L -43.8797,42.3742 L -43.1335,43.1335 L -42.3742,43.8797 L -41.6019,44.6126 L -40.817,45.3318  L -40.0196,46.0373 L -39.21,46.7287 L -38.3885,47.4059 L -37.5554,48.0687 L -36.7107,48.7168 L -35.8549,49.35  L -34.9882,49.9683 L -34.1108,50.5713 L -33.223,51.1589 L -32.3251,51.7309 L -31.4173,52.2872 L -30.5,52.8275  L -29.5734,53.3518 L -28.6378,53.8598 L -27.6934,54.3514 L -26.7406,54.8264 L -25.7797,55.2848 L -24.8109,55.7263  L -23.8346,56.1508 L -22.851,56.5582 L -21.8604,56.9484 L -20.8632,57.3213 L -19.8597,57.6766 L -18.85,58.0144  L -17.8347,58.3346 L -16.8139,58.637 L -15.788,58.9215 L -14.7572,59.188 L -13.722,59.4366 L -12.6826,59.667  L -11.6393,59.8793 L -10.5925,60.0733 L -9.5425,60.249 L -8.48956,60.4064 L -7.43403,60.5453 L -6.37624,60.6658  L -5.3165,60.7679 L -4.25515,60.8514 L -3.19249,60.9164 L -2.12887,60.9628 L -1.0646,60.9907 L 0,61  z M -1.02969,58.991 L -2.05907,58.9641 L -3.08782,58.9191 L -4.11563,58.8563 L -5.14219,58.7755 L -6.16718,58.6768  L -7.19029,58.5602 L -8.21121,58.4258 L -9.22963,58.2736 L -10.2452,58.1037 L -11.2577,57.916 L -12.2668,57.7107  L -13.2721,57.4878 L -14.2734,57.2474 L -15.2703,56.9896 L -16.2626,56.7144 L -17.2499,56.422 L -18.232,56.1123  L -19.2085,55.7856 L -20.1792,55.4419 L -21.1437,55.0812 L -22.1018,54.7038 L -23.0531,54.3098 L -23.9975,53.8992  L -24.9345,53.4722 L -25.8639,53.0288 L -26.7854,52.5694 L -27.6988,52.0939 L -28.6038,51.6026 L -29.5,51.0955  L -30.3872,50.5729 L -31.2652,50.0348 L -32.1337,49.4816 L -32.9924,48.9132 L -33.841,48.33 L -34.6793,47.732  L -35.5071,47.1195 L -36.324,46.4926 L -37.1299,45.8516 L -37.9245,45.1966 L -38.7075,44.5279 L -39.1644,44.1236  L -38.9158,44.0734 L -38.5344,43.9583 L -38.1654,43.808 L -37.8122,43.6238 L -37.4777,43.4073 L -37.165,43.1605  L -36.8767,42.8855 L -36.6155,42.5846 L -36.3836,42.2607 L -36.183,41.9164 L -36.0156,41.5549 L -35.8827,41.1793  L -35.7856,40.7929 L -35.7252,40.3991 L -35.7018,40.0014 L -35.7158,39.6032 L -35.7671,39.2081 L -35.8551,38.8195  L -35.9791,38.4409 L -36.138,38.0755 L -36.3304,37.7267 L -36.5547,37.3974 L -36.8088,37.0905 L -37.0905,36.8088  L -37.3974,36.5547 L -37.7267,36.3304 L -38.0755,36.138 L -38.4409,35.9791 L -38.8195,35.8551 L -39.2081,35.7671  L -39.6032,35.7158 L -40.0014,35.7018 L -40.3991,35.7252 L -40.7929,35.7856 L -41.1793,35.8827 L -41.5549,36.0156  L -41.9164,36.183 L -42.2607,36.3836 L -42.5846,36.6155 L -42.8855,36.8767 L -43.1605,37.165 L -43.4073,37.4777  L -43.6238,37.8122 L -43.808,38.1654 L -43.9583,38.5344 L -44.0734,38.9158 L -44.1236,39.1644 L -44.5279,38.7075  L -45.1966,37.9245 L -45.8516,37.1299 L -46.4926,36.324 L -47.1195,35.5071 L -47.732,34.6793 L -48.33,33.841  L -48.9132,32.9924 L -49.4816,32.1337 L -50.0348,31.2652 L -50.5729,30.3872 L -51.0955,29.5 L -51.6026,28.6038  L -52.0939,27.6988 L -52.5694,26.7854 L -53.0288,25.8639 L -53.4722,24.9345 L -53.8992,23.9975 L -54.3098,23.0531  L -54.7038,22.1018 L -55.0812,21.1437 L -55.4419,20.1792 L -55.7856,19.2085 L -56.1123,18.232 L -56.422,17.2499  L -56.7144,16.2626 L -56.9896,15.2703 L -57.2474,14.2734 L -57.4878,13.2721 L -57.7107,12.2668 L -57.916,11.2577  L -58.1037,10.2452 L -58.2736,9.22963 L -58.4258,8.21121 L -58.5602,7.19029 L -58.6768,6.16718 L -58.7755,5.14219  L -58.8563,4.11563 L -58.9191,3.08782 L -58.9641,2.05907 L -58.991,1.02969 L -59,-0 L -58.991,-1.02969  L -58.9641,-2.05907 L -58.9191,-3.08782 L -58.8563,-4.11563 L -58.7755,-5.14219 L -58.6768,-6.16718 L -58.5602,-7.19029  L -58.4258,-8.21121 L -58.2736,-9.22963 L -58.1037,-10.2452 L -57.916,-11.2577 L -57.7107,-12.2668 L -57.4878,-13.2721  L -57.2474,-14.2734 L -56.9896,-15.2703 L -56.7144,-16.2626 L -56.422,-17.2499 L -56.1123,-18.232 L -55.7856,-19.2085  L -55.4419,-20.1792 L -55.0812,-21.1437 L -54.7038,-22.1018 L -54.3098,-23.0531 L -53.8992,-23.9975 L -53.4722,-24.9345  L -53.0288,-25.8639 L -52.5694,-26.7854 L -52.0939,-27.6988 L -51.6026,-28.6038 L -51.0955,-29.5 L -50.5729,-30.3872  L -50.0348,-31.2652 L -49.4816,-32.1337 L -48.9132,-32.9924 L -48.33,-33.841 L -47.732,-34.6793 L -47.1195,-35.5071  L -46.4926,-36.324 L -45.8516,-37.1299 L -45.1966,-37.9245 L -44.5279,-38.7075 L -44.1254,-39.1623 L -44.1174,-39.1102  L -44.0203,-38.7238 L -43.8875,-38.3482 L -43.7201,-37.9866 L -43.5195,-37.6424 L -43.2876,-37.3184 L -43.0264,-37.0176  L -42.7381,-36.7426 L -42.4254,-36.4957 L -42.0909,-36.2793 L -41.7376,-36.0951 L -41.3686,-35.9448 L -40.9872,-35.8297  L -40.5967,-35.7508 L -40.2005,-35.7088 L -39.8021,-35.7042 L -39.405,-35.7368 L -39.0128,-35.8065 L -38.6287,-35.9126  L -38.2563,-36.0542 L -37.8988,-36.2301 L -37.5594,-36.4387 L -37.2409,-36.6781 L -36.9463,-36.9463 L -36.6781,-37.2409  L -36.4387,-37.5594 L -36.2301,-37.8988 L -36.0542,-38.2563 L -35.9126,-38.6287 L -35.8065,-39.0128 L -35.7368,-39.405  L -35.7042,-39.8021 L -35.7088,-40.2005 L -35.7508,-40.5967 L -35.8297,-40.9872 L -35.9448,-41.3686 L -36.0951,-41.7376  L -36.2793,-42.0909 L -36.4957,-42.4254 L -36.7426,-42.7381 L -37.0176,-43.0264 L -37.3184,-43.2876 L -37.6424,-43.5195  L -37.9866,-43.7201 L -38.3482,-43.8875 L -38.7238,-44.0203 L -39.1102,-44.1174 L -39.1623,-44.1254 L -38.7075,-44.5279  L -37.9245,-45.1966 L -37.1299,-45.8516 L -36.324,-46.4926 L -35.5071,-47.1195 L -34.6793,-47.732 L -33.841,-48.33  L -32.9924,-48.9132 L -32.1337,-49.4816 L -31.2652,-50.0348 L -30.3872,-50.5729 L -29.5,-51.0955 L -28.6038,-51.6026  L -27.6988,-52.0939 L -26.7854,-52.5694 L -25.8639,-53.0288 L -24.9345,-53.4722 L -23.9975,-53.8992 L -23.0531,-54.3098  L -22.1018,-54.7038 L -21.1437,-55.0812 L -20.1792,-55.4419 L -19.2085,-55.7856 L -18.232,-56.1123 L -17.2499,-56.422  L -16.2626,-56.7144 L -15.2703,-56.9896 L -14.2734,-57.2474 L -13.2721,-57.4878 L -12.2668,-57.7107 L -11.2577,-57.916  L -10.2452,-58.1037 L -9.22963,-58.2736 L -8.21121,-58.4258 L -7.19029,-58.5602 L -6.16718,-58.6768 L -5.14219,-58.7755  L -4.11563,-58.8563 L -3.08782,-58.9191 L -2.05907,-58.9641 L -1.02969,-58.991 L 0,-59 L 1.02969,-58.991  L 2.05907,-58.9641 L 3.08782,-58.9191 L 4.11563,-58.8563 L 5.14219,-58.7755 L 6.16718,-58.6768 L 7.19029,-58.5602  L 8.21121,-58.4258 L 9.22963,-58.2736 L 10.2452,-58.1037 L 11.2577,-57.916 L 12.2668,-57.7107 L 13.2721,-57.4878  L 14.2734,-57.2474 L 15.2703,-56.9896 L 16.2626,-56.7144 L 17.2499,-56.422 L 18.232,-56.1123 L 19.2085,-55.7856  L 20.1792,-55.4419 L 21.1437,-55.0812 L 22.1018,-54.7038 L 23.0531,-54.3098 L 23.9975,-53.8992 L 24.9345,-53.4722  L 25.8639,-53.0288 L 26.7854,-52.5694 L 27.6988,-52.0939 L 28.6038,-51.6026 L 29.5,-51.0955 L 30.3872,-50.5729  L 31.2652,-50.0348 L 32.1337,-49.4816 L 32.9924,-48.9132 L 33.841,-48.33 L 34.6793,-47.732 L 35.5071,-47.1195  L 36.324,-46.4926 L 37.1299,-45.8516 L 37.9245,-45.1966 L 38.7075,-44.5279 L 39.1644,-44.1236 L 38.9158,-44.0734  L 38.5344,-43.9583 L 38.1654,-43.808 L 37.8122,-43.6238 L 37.4777,-43.4073 L 37.165,-43.1605 L 36.8767,-42.8855  L 36.6155,-42.5846 L 36.3836,-42.2607 L 36.183,-41.9164 L 36.0156,-41.5549 L 35.8827,-41.1793 L 35.7856,-40.7929  L 35.7252,-40.3991 L 35.7018,-40.0014 L 35.7158,-39.6032 L 35.7671,-39.2081 L 35.8551,-38.8195 L 35.9791,-38.4409  L 36.138,-38.0755 L 36.3304,-37.7267 L 36.5547,-37.3974 L 36.8088,-37.0905 L 37.0905,-36.8088 L 37.3974,-36.5547  L 37.7267,-36.3304 L 38.0755,-36.138 L 38.4409,-35.9791 L 38.8195,-35.8551 L 39.2081,-35.7671 L 39.6032,-35.7158  L 40.0014,-35.7018 L 40.3991,-35.7252 L 40.7929,-35.7856 L 41.1793,-35.8827 L 41.5549,-36.0156 L 41.9164,-36.183  L 42.2607,-36.3836 L 42.5846,-36.6155 L 42.8855,-36.8767 L 43.1605,-37.165 L 43.4073,-37.4777 L 43.6238,-37.8122  L 43.808,-38.1654 L 43.9583,-38.5344 L 44.0734,-38.9158 L 44.1236,-39.1644 L 44.5279,-38.7075 L 45.1966,-37.9245  L 45.8516,-37.1299 L 46.4926,-36.324 L 47.1195,-35.5071 L 47.732,-34.6793 L 48.33,-33.841 L 48.9132,-32.9924  L 49.4816,-32.1337 L 50.0348,-31.2652 L 50.5729,-30.3872 L 51.0955,-29.5 L 51.6026,-28.6038 L 52.0939,-27.6988  L 52.5694,-26.7854 L 53.0288,-25.8639 L 53.4722,-24.9345 L 53.8992,-23.9975 L 54.3098,-23.0531 L 54.7038,-22.1018  L 55.0812,-21.1437 L 55.4419,-20.1792 L 55.7856,-19.2085 L 56.1123,-18.232 L 56.422,-17.2499 L 56.7144,-16.2626  L 56.9896,-15.2703 L 57.2474,-14.2734 L 57.4878,-13.2721 L 57.7107,-12.2668 L 57.916,-11.2577 L 58.1037,-10.2452  L 58.2736,-9.22963 L 58.4258,-8.21121 L 58.5602,-7.19029 L 58.6768,-6.16718 L 58.7755,-5.14219 L 58.8563,-4.11563  L 58.9191,-3.08782 L 58.9641,-2.05907 L 58.991,-1.02969 L 59,-0 L 58.991,1.02969 L 58.9641,2.05907  L 58.9191,3.08782 L 58.8563,4.11563 L 58.7755,5.14219 L 58.6768,6.16718 L 58.5602,7.19029 L 58.4258,8.21121  L 58.2736,9.22963 L 58.1037,10.2452 L 57.916,11.2577 L 57.7107,12.2668 L 57.4878,13.2721 L 57.2474,14.2734  L 56.9896,15.2703 L 56.7144,16.2626 L 56.422,17.2499 L 56.1123,18.232 L 55.7856,19.2085 L 55.4419,20.1792  L 55.0812,21.1437 L 54.7038,22.1018 L 54.3098,23.0531 L 53.8992,23.9975 L 53.4722,24.9345 L 53.0288,25.8639  L 52.5694,26.7854 L 52.0939,27.6988 L 51.6026,28.6038 L 51.0955,29.5 L 50.5729,30.3872 L 50.0348,31.2652  L 49.4816,32.1337 L 48.9132,32.9924 L 48.33,33.841 L 47.732,34.6793 L 47.1195,35.5071 L 46.4926,36.324  L 45.8516,37.1299 L 45.1966,37.9245 L 44.5279,38.7075 L 44.1254,39.1623 L 44.1174,39.1102 L 44.0203,38.7238  L 43.8875,38.3482 L 43.7201,37.9866 L 43.5195,37.6424 L 43.2876,37.3184 L 43.0264,37.0176 L 42.7381,36.7426  L 42.4254,36.4957 L 42.0909,36.2793 L 41.7376,36.0951 L 41.3686,35.9448 L 40.9872,35.8297 L 40.5967,35.7508  L 40.2005,35.7088 L 39.8021,35.7042 L 39.405,35.7368 L 39.0128,35.8065 L 38.6287,35.9126 L 38.2563,36.0542  L 37.8988,36.2301 L 37.5594,36.4387 L 37.2409,36.6781 L 36.9463,36.9463 L 36.6781,37.2409 L 36.4387,37.5594  L 36.2301,37.8988 L 36.0542,38.2563 L 35.9126,38.6287 L 35.8065,39.0128 L 35.7368,39.405 L 35.7042,39.8021  L 35.7088,40.2005 L 35.7508,40.5967 L 35.8297,40.9872 L 35.9448,41.3686 L 36.0951,41.7376 L 36.2793,42.0909  L 36.4957,42.4254 L 36.7426,42.7381 L 37.0176,43.0264 L 37.3184,43.2876 L 37.6424,43.5195 L 37.9866,43.7201  L 38.3482,43.8875 L 38.7238,44.0203 L 39.1102,44.1174 L 39.1623,44.1254 L 38.7075,44.5279 L 37.9245,45.1966  L 37.1299,45.8516 L 36.324,46.4926 L 35.5071,47.1195 L 34.6793,47.732 L 33.841,48.33 L 32.9924,48.9132  L 32.1337,49.4816 L 31.2652,50.0348 L 30.3872,50.5729 L 29.5,51.0955 L 28.6038,51.6026 L 27.6988,52.0939  L 26.7854,52.5694 L 25.8639,53.0288 L 24.9345,53.4722 L 23.9975,53.8992 L 23.0531,54.3098 L 22.1018,54.7038  L 21.1437,55.0812 L 20.1792,55.4419 L 19.2085,55.7856 L 18.232,56.1123 L 17.2499,56.422 L 16.2626,56.7144  L 15.2703,56.9896 L 14.2734,57.2474 L 13.2721,57.4878 L 12.2668,57.7107 L 11.2577,57.916 L 10.2452,58.1037  L 9.22963,58.2736 L 8.21121,58.4258 L 7.19029,58.5602 L 6.16718,58.6768 L 5.14219,58.7755 L 4.11563,58.8563  L 3.08782,58.9191 L 2.05907,58.9641 L 1.02969,58.991 L 0,59 z M 39.4196,-38.6026 L 39.0754,-38.7962 L 38.7962,-39.0754 L 38.6026,-39.4196 L 38.5091,-39.8032 L 38.5226,-40.1979  L 38.6421,-40.5743 L 38.8587,-40.9045 L 39.1563,-41.164 L 39.5129,-41.3336 L 39.902,-41.4007 L 40.2948,-41.3603  L 40.6622,-41.2154 L 40.9768,-40.9768 L 41.2154,-40.6622 L 41.3603,-40.2948 L 41.4007,-39.902 L 41.3336,-39.5129  L 41.164,-39.1563 L 40.9045,-38.8587 L 40.5743,-38.6421 L 40.1979,-38.5226 L 39.8032,-38.5091 z M -40.3902,-38.5695 L -40.7468,-38.7391 L -41.0444,-38.9986 L -41.261,-39.3288 L -41.3804,-39.7052 L -41.3939,-40.0998  L -41.3004,-40.4835 L -41.1069,-40.8277 L -40.8277,-41.1069 L -40.4835,-41.3004 L -40.0998,-41.3939 L -39.7052,-41.3804  L -39.3288,-41.261 L -38.9986,-41.0444 L -38.7391,-40.7468 L -38.5695,-40.3902 L -38.5024,-40.001 L -38.5428,-39.6082  L -38.6876,-39.2409 L -38.9262,-38.9262 L -39.2409,-38.6876 L -39.6082,-38.5428 L -40.001,-38.5024 z M 39.7052,41.3804 L 39.3288,41.261 L 38.9986,41.0444 L 38.7391,40.7468 L 38.5695,40.3902 L 38.5024,40.001  L 38.5428,39.6082 L 38.6876,39.2409 L 38.9262,38.9262 L 39.2409,38.6876 L 39.6082,38.5428 L 40.001,38.5024  L 40.3902,38.5695 L 40.7468,38.7391 L 41.0444,38.9986 L 41.261,39.3288 L 41.3804,39.7052 L 41.3939,40.0998  L 41.3004,40.4835 L 41.1069,40.8277 L 40.8277,41.1069 L 40.4835,41.3004 L 40.0998,41.3939 z M -40.2948,41.3603 L -40.6622,41.2154 L -40.9768,40.9768 L -41.2154,40.6622 L -41.3603,40.2948 L -41.4007,39.902  L -41.3336,39.5129 L -41.164,39.1563 L -40.9045,38.8587 L -40.5743,38.6421 L -40.1979,38.5226 L -39.8032,38.5091  L -39.4196,38.6026 L -39.0754,38.7962 L -38.7962,39.0754 L -38.6026,39.4196 L -38.5091,39.8032 L -38.5226,40.1979  L -38.6421,40.5743 L -38.8587,40.9045 L -39.1563,41.164 L -39.5129,41.3336 L -39.902,41.4007 z "
     stroke="black"
     fill="lightgray"
     stroke-width="0.5"
     id="path82" />
  <path
     d="m -28.379154,-39.132623 0.0233,0.3977 0.0605,0.3938 0.0971,0.3864 0.1328,0.3756 0.1675,0.3616 0.2005,0.3442 0.2319,0.324 0.2612,0.3008 0.2883,0.275 0.3127,0.2469 0.3345,0.2164 0.3533,0.1842 0.369,0.1503 0.3814,0.1151 0.3905,0.0789 0.3962,0.042 0.3984,0.0046 0.3971,-0.0326 0.3922,-0.0697 0.3841,-0.1061 0.3724,-0.1416 0.3575,-0.1759 0.3394,-0.2086 0.3185,-0.2394 0.2946,-0.2682 0.2682,-0.2946 0.2394,-0.3185 0.2086,-0.3394 0.1759,-0.3575 0.1416,-0.3724 0.1061,-0.3841 0.0697,-0.3922 0.0326,-0.3971 -0.0046,-0.3984 -0.042,-0.3962 -0.0789,-0.3905 -0.1151,-0.3814 -0.1503,-0.369 -0.1842,-0.3533 -0.2164,-0.3345 -0.2469,-0.3127 -0.275,-0.2883 -0.3008,-0.2612 -0.324,-0.2319 -0.3442,-0.2005 -0.3616,-0.1675 -0.3756,-0.1328 -0.3864,-0.0971 -0.3938,-0.0605 -0.3977,-0.0233 -0.3982,0.014 -0.3951,0.0512 -0.3886,0.088 -0.3786,0.124 -0.3653,0.1589 -0.3489,0.1925 -0.3293,0.2242 -0.3069,0.2541 -0.2817,0.2817 -0.2541,0.3069 -0.2242,0.3293 -0.1925,0.3489 -0.1589,0.3653 -0.124,0.3786 -0.088,0.3886 -0.0512,0.3951 z m 1.5067,0.1463 v -0.3923 l 0.0558,-0.3884 0.1106,-0.3765 0.163,-0.3569 0.2121,-0.33 0.2569,-0.2966 0.2966,-0.2569 0.33,-0.2121 0.3569,-0.163 0.3765,-0.1106 0.3884,-0.0558 h 0.3923 l 0.3884,0.0558 0.3765,0.1106 0.3569,0.163 0.3301,0.2121 0.2965,0.2569 0.257,0.2966 0.2121,0.33 0.163,0.3569 0.1105,0.3765 0.0559,0.3884 v 0.3923 l -0.0559,0.3884 -0.1105,0.3765 -0.163,0.3569 -0.2121,0.3301 -0.257,0.2965 -0.2965,0.257 -0.3301,0.2121 -0.3569,0.163 -0.3765,0.1105 -0.3884,0.0559 h -0.3923 l -0.3884,-0.0559 -0.3765,-0.1105 -0.3569,-0.163 -0.33,-0.2121 -0.2966,-0.257 -0.2569,-0.2965 -0.2121,-0.3301 -0.163,-0.3569 -0.1106,-0.3765 z m -1.5044,79.8564 0.0327,0.397 0.0696,0.3923 0.1062,0.384 0.1416,0.3724 0.1758,0.3575 0.2086,0.3395 0.2395,0.3184 0.2682,0.2946 0.2946,0.2682 0.3184,0.2395 0.3395,0.2086 0.3575,0.1758 0.3724,0.1416 0.384,0.1062 0.3923,0.0696 0.397,0.0327 0.3984,-0.0047 0.3962,-0.0419 0.3906,-0.0789 0.3814,-0.1151 0.369,-0.1503 0.3532,-0.1842 0.3345,-0.2165 0.3127,-0.2468 0.2883,-0.275 0.2612,-0.3009 0.2319,-0.3239 0.2006,-0.3443 0.1674,-0.3615 0.1329,-0.3756 0.0971,-0.3864 0.0604,-0.3938 0.0234,-0.3977 -0.014,-0.3982 -0.0513,-0.3951 -0.088,-0.3886 -0.124,-0.3786 -0.1589,-0.3654 -0.1924,-0.3488 -0.2243,-0.3293 -0.2541,-0.3069 -0.2817,-0.2817 -0.3069,-0.2541 -0.3293,-0.2243 -0.3488,-0.1924 -0.3654,-0.1589 -0.3786,-0.124 -0.3886,-0.088 -0.3951,-0.0513 -0.3982,-0.014 -0.3977,0.0234 -0.3938,0.0604 -0.3864,0.0971 -0.3756,0.1329 -0.3615,0.1674 -0.3443,0.2006 -0.3239,0.2319 -0.3009,0.2612 -0.275,0.2883 -0.2468,0.3127 -0.2165,0.3345 -0.1842,0.3532 -0.1503,0.369 -0.1151,0.3814 -0.0789,0.3906 -0.0419,0.3962 z m 1.5044,0.0467 v -0.3923 l 0.0558,-0.3884 0.1106,-0.3765 0.163,-0.3569 0.2121,-0.3301 0.2569,-0.2965 0.2966,-0.257 0.33,-0.2121 0.3569,-0.163 0.3765,-0.1105 0.3884,-0.0559 h 0.3923 l 0.3884,0.0559 0.3765,0.1105 0.3569,0.163 0.3301,0.2121 0.2965,0.257 0.257,0.2965 0.2121,0.3301 0.163,0.3569 0.1105,0.3765 0.0559,0.3884 v 0.3923 l -0.0559,0.3884 -0.1105,0.3765 -0.163,0.3569 -0.2121,0.33 -0.257,0.2966 -0.2965,0.2569 -0.3301,0.2121 -0.3569,0.163 -0.3765,0.1106 -0.3884,0.0558 h -0.3923 l -0.3884,-0.0558 -0.3765,-0.1106 -0.3569,-0.163 -0.33,-0.2121 -0.2966,-0.2569 -0.2569,-0.2966 -0.2121,-0.33 -0.163,-0.3569 -0.1106,-0.3765 z m 78.3963,-80.1491 0.014,0.3982 0.0513,0.3951 0.088,0.3886 0.124,0.3786 0.1589,0.3654 0.1924,0.3488 0.2243,0.3293 0.2541,0.3069 0.2817,0.2817 0.3069,0.2541 0.3293,0.2243 0.3488,0.1924 0.3654,0.1589 0.3786,0.124 0.3886,0.088 0.3951,0.0513 0.3982,0.014 0.3977,-0.0234 0.3938,-0.0604 0.3864,-0.0971 0.3756,-0.1329 0.3615,-0.1674 0.3443,-0.2006 0.3239,-0.2319 0.3009,-0.2612 0.275,-0.2883 0.2468,-0.3127 0.2165,-0.3345 0.1842,-0.3532 0.1503,-0.369 0.1151,-0.3814 0.0789,-0.3906 0.0419,-0.3962 0.0047,-0.3984 -0.0327,-0.397 -0.0696,-0.3923 -0.1062,-0.384 -0.1416,-0.3724 -0.1758,-0.3575 -0.2086,-0.3395 -0.2395,-0.3184 -0.2682,-0.2946 -0.2946,-0.2682 -0.3184,-0.2395 -0.3395,-0.2086 -0.3575,-0.1758 -0.3724,-0.1416 -0.384,-0.1062 -0.3923,-0.0696 -0.397,-0.0327 -0.3984,0.0047 -0.3962,0.0419 -0.3906,0.0789 -0.3814,0.1151 -0.369,0.1503 -0.3532,0.1842 -0.3345,0.2165 -0.3127,0.2468 -0.2883,0.275 -0.2612,0.3009 -0.2319,0.3239 -0.2006,0.3443 -0.1674,0.3615 -0.1329,0.3756 -0.0971,0.3864 -0.0604,0.3938 z m 1.5067,0.246 v -0.3923 l 0.0559,-0.3884 0.1105,-0.3765 0.163,-0.3569 0.2121,-0.33 0.257,-0.2966 0.2965,-0.2569 0.3301,-0.2121 0.3569,-0.163 0.3765,-0.1106 0.3884,-0.0558 h 0.3923 l 0.3884,0.0558 0.3765,0.1106 0.3569,0.163 0.33,0.2121 0.2966,0.2569 0.2569,0.2966 0.2121,0.33 0.163,0.3569 0.1106,0.3765 0.0558,0.3884 v 0.3923 l -0.0558,0.3884 -0.1106,0.3765 -0.163,0.3569 -0.2121,0.3301 -0.2569,0.2965 -0.2966,0.257 -0.33,0.2121 -0.3569,0.163 -0.3765,0.1105 -0.3884,0.0559 h -0.3923 l -0.3884,-0.0559 -0.3765,-0.1105 -0.3569,-0.163 -0.3301,-0.2121 -0.2965,-0.257 -0.257,-0.2965 -0.2121,-0.3301 -0.163,-0.3569 -0.1105,-0.3765 z m -1.5043,79.5575 0.0046,0.3984 0.042,0.3962 0.0789,0.3905 0.1151,0.3814 0.1503,0.369 0.1842,0.3533 0.2164,0.3345 0.2469,0.3127 0.275,0.2883 0.3008,0.2612 0.324,0.2319 0.3442,0.2005 0.3616,0.1675 0.3756,0.1328 0.3864,0.0971 0.3938,0.0605 0.3977,0.0233 0.3982,-0.014 0.3951,-0.0512 0.3886,-0.088 0.3786,-0.124 0.3653,-0.1589 0.3489,-0.1925 0.3293,-0.2242 0.3069,-0.2541 0.2817,-0.2817 0.2541,-0.3069 0.2242,-0.3293 0.1925,-0.3489 0.1589,-0.3653 0.124,-0.3786 0.088,-0.3886 0.0512,-0.3951 0.014,-0.3982 -0.0233,-0.3977 -0.0605,-0.3938 -0.0971,-0.3864 -0.1328,-0.3756 -0.1675,-0.3616 -0.2005,-0.3442 -0.2319,-0.324 -0.2612,-0.3008 -0.2883,-0.275 -0.3127,-0.2469 -0.3345,-0.2164 -0.3533,-0.1842 -0.369,-0.1503 -0.3814,-0.1151 -0.3905,-0.0789 -0.3962,-0.042 -0.3984,-0.0046 -0.3971,0.0326 -0.3922,0.0697 -0.3841,0.1061 -0.3724,0.1416 -0.3575,0.1759 -0.3394,0.2086 -0.3185,0.2394 -0.2946,0.2682 -0.2682,0.2946 -0.2394,0.3185 -0.2086,0.3394 -0.1759,0.3575 -0.1416,0.3724 -0.1061,0.3841 -0.0697,0.3922 z m 1.5043,0.3456 v -0.3923 l 0.0559,-0.3884 0.1105,-0.3765 0.163,-0.3569 0.2121,-0.3301 0.257,-0.2965 0.2965,-0.257 0.3301,-0.2121 0.3569,-0.163 0.3765,-0.1105 0.3884,-0.0559 h 0.3923 l 0.3884,0.0559 0.3765,0.1105 0.3569,0.163 0.33,0.2121 0.2966,0.257 0.2569,0.2965 0.2121,0.3301 0.163,0.3569 0.1106,0.3765 0.0558,0.3884 v 0.3923 l -0.0558,0.3884 -0.1106,0.3765 -0.163,0.3569 -0.2121,0.33 -0.2569,0.2966 -0.2966,0.2569 -0.33,0.2121 -0.3569,0.163 -0.3765,0.1106 -0.3884,0.0558 h -0.3923 l -0.3884,-0.0558 -0.3765,-0.1106 -0.3569,-0.163 -0.3301,-0.2121 -0.2965,-0.2569 -0.257,-0.2966 -0.2121,-0.33 -0.163,-0.3569 -0.1105,-0.3765 z"
     stroke="#000000"
     fill="#d3d3d3"
     stroke-width="0.5"
     id="path232" />
  <metadata
     id="metadata332">
    <rdf:RDF>
      <cc:Work
         rdf:about="">
        <dc:title>OpenSCAD Model</dc:title>
      </cc:Work>
    </rdf:RDF>
  </metadata>
  <path
     d="m 41.627132,14.769077 h -2.5 v -28 h 2.5 v -16 H 6.6271324 v 60 H 41.627132 Z m -5.98557,-35.1337 -0.35062,-0.1817 -0.288591,-0.2695 -0.205175,-0.3374 -0.106538,-0.3803 v -0.3948 l 0.106538,-0.3803 0.205175,-0.3374 0.288591,-0.2695 0.35062,-0.1817 0.38662,-0.0803 0.39396,0.0269 0.37209,0.1323 0.3226,0.2277 0.24921,0.3063 0.15732,0.3622 0.05377,0.3912 -0.05377,0.3912 -0.15732,0.3622 -0.24921,0.3063 -0.3226,0.2277 -0.37209,0.1323 -0.39396,0.0269 z m -25.50003,22.49998 -0.3505996,-0.18167 -0.2886,-0.269533 -0.2052,-0.337395 -0.1065,-0.380241 V 0.571636 l 0.1065,-0.380241 0.2052,-0.337395 0.2886,-0.269533 0.3505996,-0.18167 0.3866,-0.08034 0.394,0.02695 0.3721,0.13224 0.3226,0.22772 0.2492,0.306314 0.1573,0.362191 0.0538,0.391205 -0.0538,0.391205 -0.1573,0.362191 -0.2492,0.306314 -0.3226,0.22772 -0.3721,0.13224 -0.394,0.02695 z m 25.50003,22.50002 -0.35062,-0.1817 -0.288591,-0.2695 -0.205175,-0.3374 -0.106538,-0.3803 v -0.3948 l 0.106538,-0.3803 0.205175,-0.3374 0.288591,-0.2695 0.35062,-0.1817 0.38662,-0.0803 0.39396,0.0269 0.37209,0.1323 0.3226,0.2277 0.24921,0.3063 0.15732,0.3622 0.05377,0.3912 -0.05377,0.3912 -0.15732,0.3622 -0.24921,0.3063 -0.3226,0.2277 -0.37209,0.1323 -0.39396,0.0269 z"
     stroke="#000000"
     fill="#d3d3d3"
     stroke-width="0.5"
     id="path4278" />
</svg>
